<?xml version="1.0" encoding="utf-8" standalone="no"?>
<!DOCTYPE svg PUBLIC "-//W3C//DTD SVG 1.1//EN"
  "http://www.w3.org/Graphics/SVG/1.1/DTD/svg11.dtd">
<svg xmlns:xlink="http://www.w3.org/1999/xlink" width="864pt" height="288pt" viewBox="0 0 864 288" xmlns="http://www.w3.org/2000/svg" version="1.1">
 <metadata>
  <rdf:RDF xmlns:dc="http://purl.org/dc/elements/1.1/" xmlns:cc="http://creativecommons.org/ns#" xmlns:rdf="http://www.w3.org/1999/02/22-rdf-syntax-ns#">
   <cc:Work>
    <dc:type rdf:resource="http://purl.org/dc/dcmitype/StillImage"/>
    <dc:date>2025-01-30T14:42:32.472765</dc:date>
    <dc:format>image/svg+xml</dc:format>
    <dc:creator>
     <cc:Agent>
      <dc:title>Matplotlib v3.8.4, https://matplotlib.org/</dc:title>
     </cc:Agent>
    </dc:creator>
   </cc:Work>
  </rdf:RDF>
 </metadata>
 <defs>
  <style type="text/css">*{stroke-linejoin: round; stroke-linecap: butt}</style>
 </defs>
 <g id="figure_1">
  <g id="patch_1">
   <path d="M 0 288 
L 864 288 
L 864 0 
L 0 0 
L 0 288 
z
" style="fill: none"/>
  </g>
  <g id="axes_1">
   <g id="patch_2">
    <path d="M 108 256.32 
L 777.6 256.32 
L 777.6 34.56 
L 108 34.56 
L 108 256.32 
z
" style="fill: none"/>
   </g>
   <g id="matplotlib.axis_1">
    <g id="xtick_1">
     <g id="line2d_1">
      <defs>
       <path id="m39e4942f47" d="M 0 0 
L 0 3.5 
" style="stroke: #000000; stroke-width: 0.8"/>
      </defs>
      <g>
       <use xlink:href="#m39e4942f47" x="108" y="256.32" style="stroke: #000000; stroke-width: 0.8"/>
      </g>
     </g>
     <g id="text_1">
      <!-- 0 -->
      <g transform="translate(103.54625 273.957812) scale(0.14 -0.14)">
       <defs>
        <path id="DejaVuSans-30" d="M 2034 4250 
Q 1547 4250 1301 3770 
Q 1056 3291 1056 2328 
Q 1056 1369 1301 889 
Q 1547 409 2034 409 
Q 2525 409 2770 889 
Q 3016 1369 3016 2328 
Q 3016 3291 2770 3770 
Q 2525 4250 2034 4250 
z
M 2034 4750 
Q 2819 4750 3233 4129 
Q 3647 3509 3647 2328 
Q 3647 1150 3233 529 
Q 2819 -91 2034 -91 
Q 1250 -91 836 529 
Q 422 1150 422 2328 
Q 422 3509 836 4129 
Q 1250 4750 2034 4750 
z
" transform="scale(0.015625)"/>
       </defs>
       <use xlink:href="#DejaVuSans-30"/>
      </g>
     </g>
    </g>
    <g id="xtick_2">
     <g id="line2d_2">
      <g>
       <use xlink:href="#m39e4942f47" x="219.6" y="256.32" style="stroke: #000000; stroke-width: 0.8"/>
      </g>
     </g>
     <g id="text_2">
      <!-- 10 -->
      <g transform="translate(210.6925 273.957812) scale(0.14 -0.14)">
       <defs>
        <path id="DejaVuSans-31" d="M 794 531 
L 1825 531 
L 1825 4091 
L 703 3866 
L 703 4441 
L 1819 4666 
L 2450 4666 
L 2450 531 
L 3481 531 
L 3481 0 
L 794 0 
L 794 531 
z
" transform="scale(0.015625)"/>
       </defs>
       <use xlink:href="#DejaVuSans-31"/>
       <use xlink:href="#DejaVuSans-30" x="63.623047"/>
      </g>
     </g>
    </g>
    <g id="xtick_3">
     <g id="line2d_3">
      <g>
       <use xlink:href="#m39e4942f47" x="331.2" y="256.32" style="stroke: #000000; stroke-width: 0.8"/>
      </g>
     </g>
     <g id="text_3">
      <!-- 20 -->
      <g transform="translate(322.2925 273.957812) scale(0.14 -0.14)">
       <defs>
        <path id="DejaVuSans-32" d="M 1228 531 
L 3431 531 
L 3431 0 
L 469 0 
L 469 531 
Q 828 903 1448 1529 
Q 2069 2156 2228 2338 
Q 2531 2678 2651 2914 
Q 2772 3150 2772 3378 
Q 2772 3750 2511 3984 
Q 2250 4219 1831 4219 
Q 1534 4219 1204 4116 
Q 875 4013 500 3803 
L 500 4441 
Q 881 4594 1212 4672 
Q 1544 4750 1819 4750 
Q 2544 4750 2975 4387 
Q 3406 4025 3406 3419 
Q 3406 3131 3298 2873 
Q 3191 2616 2906 2266 
Q 2828 2175 2409 1742 
Q 1991 1309 1228 531 
z
" transform="scale(0.015625)"/>
       </defs>
       <use xlink:href="#DejaVuSans-32"/>
       <use xlink:href="#DejaVuSans-30" x="63.623047"/>
      </g>
     </g>
    </g>
    <g id="xtick_4">
     <g id="line2d_4">
      <g>
       <use xlink:href="#m39e4942f47" x="442.8" y="256.32" style="stroke: #000000; stroke-width: 0.8"/>
      </g>
     </g>
     <g id="text_4">
      <!-- 30 -->
      <g transform="translate(433.8925 273.957812) scale(0.14 -0.14)">
       <defs>
        <path id="DejaVuSans-33" d="M 2597 2516 
Q 3050 2419 3304 2112 
Q 3559 1806 3559 1356 
Q 3559 666 3084 287 
Q 2609 -91 1734 -91 
Q 1441 -91 1130 -33 
Q 819 25 488 141 
L 488 750 
Q 750 597 1062 519 
Q 1375 441 1716 441 
Q 2309 441 2620 675 
Q 2931 909 2931 1356 
Q 2931 1769 2642 2001 
Q 2353 2234 1838 2234 
L 1294 2234 
L 1294 2753 
L 1863 2753 
Q 2328 2753 2575 2939 
Q 2822 3125 2822 3475 
Q 2822 3834 2567 4026 
Q 2313 4219 1838 4219 
Q 1578 4219 1281 4162 
Q 984 4106 628 3988 
L 628 4550 
Q 988 4650 1302 4700 
Q 1616 4750 1894 4750 
Q 2613 4750 3031 4423 
Q 3450 4097 3450 3541 
Q 3450 3153 3228 2886 
Q 3006 2619 2597 2516 
z
" transform="scale(0.015625)"/>
       </defs>
       <use xlink:href="#DejaVuSans-33"/>
       <use xlink:href="#DejaVuSans-30" x="63.623047"/>
      </g>
     </g>
    </g>
    <g id="xtick_5">
     <g id="line2d_5">
      <g>
       <use xlink:href="#m39e4942f47" x="554.4" y="256.32" style="stroke: #000000; stroke-width: 0.8"/>
      </g>
     </g>
     <g id="text_5">
      <!-- 40 -->
      <g transform="translate(545.4925 273.957812) scale(0.14 -0.14)">
       <defs>
        <path id="DejaVuSans-34" d="M 2419 4116 
L 825 1625 
L 2419 1625 
L 2419 4116 
z
M 2253 4666 
L 3047 4666 
L 3047 1625 
L 3713 1625 
L 3713 1100 
L 3047 1100 
L 3047 0 
L 2419 0 
L 2419 1100 
L 313 1100 
L 313 1709 
L 2253 4666 
z
" transform="scale(0.015625)"/>
       </defs>
       <use xlink:href="#DejaVuSans-34"/>
       <use xlink:href="#DejaVuSans-30" x="63.623047"/>
      </g>
     </g>
    </g>
    <g id="xtick_6">
     <g id="line2d_6">
      <g>
       <use xlink:href="#m39e4942f47" x="666" y="256.32" style="stroke: #000000; stroke-width: 0.8"/>
      </g>
     </g>
     <g id="text_6">
      <!-- 50 -->
      <g transform="translate(657.0925 273.957812) scale(0.14 -0.14)">
       <defs>
        <path id="DejaVuSans-35" d="M 691 4666 
L 3169 4666 
L 3169 4134 
L 1269 4134 
L 1269 2991 
Q 1406 3038 1543 3061 
Q 1681 3084 1819 3084 
Q 2600 3084 3056 2656 
Q 3513 2228 3513 1497 
Q 3513 744 3044 326 
Q 2575 -91 1722 -91 
Q 1428 -91 1123 -41 
Q 819 9 494 109 
L 494 744 
Q 775 591 1075 516 
Q 1375 441 1709 441 
Q 2250 441 2565 725 
Q 2881 1009 2881 1497 
Q 2881 1984 2565 2268 
Q 2250 2553 1709 2553 
Q 1456 2553 1204 2497 
Q 953 2441 691 2322 
L 691 4666 
z
" transform="scale(0.015625)"/>
       </defs>
       <use xlink:href="#DejaVuSans-35"/>
       <use xlink:href="#DejaVuSans-30" x="63.623047"/>
      </g>
     </g>
    </g>
    <g id="xtick_7">
     <g id="line2d_7">
      <g>
       <use xlink:href="#m39e4942f47" x="777.6" y="256.32" style="stroke: #000000; stroke-width: 0.8"/>
      </g>
     </g>
     <g id="text_7">
      <!-- 60 -->
      <g transform="translate(768.6925 273.957812) scale(0.14 -0.14)">
       <defs>
        <path id="DejaVuSans-36" d="M 2113 2584 
Q 1688 2584 1439 2293 
Q 1191 2003 1191 1497 
Q 1191 994 1439 701 
Q 1688 409 2113 409 
Q 2538 409 2786 701 
Q 3034 994 3034 1497 
Q 3034 2003 2786 2293 
Q 2538 2584 2113 2584 
z
M 3366 4563 
L 3366 3988 
Q 3128 4100 2886 4159 
Q 2644 4219 2406 4219 
Q 1781 4219 1451 3797 
Q 1122 3375 1075 2522 
Q 1259 2794 1537 2939 
Q 1816 3084 2150 3084 
Q 2853 3084 3261 2657 
Q 3669 2231 3669 1497 
Q 3669 778 3244 343 
Q 2819 -91 2113 -91 
Q 1303 -91 875 529 
Q 447 1150 447 2328 
Q 447 3434 972 4092 
Q 1497 4750 2381 4750 
Q 2619 4750 2861 4703 
Q 3103 4656 3366 4563 
z
" transform="scale(0.015625)"/>
       </defs>
       <use xlink:href="#DejaVuSans-36"/>
       <use xlink:href="#DejaVuSans-30" x="63.623047"/>
      </g>
     </g>
    </g>
    <g id="text_8">
     <!-- Reaction Delay (days) -->
     <g transform="translate(365.8875 291.507187) scale(0.14 -0.14)">
      <defs>
       <path id="DejaVuSans-52" d="M 2841 2188 
Q 3044 2119 3236 1894 
Q 3428 1669 3622 1275 
L 4263 0 
L 3584 0 
L 2988 1197 
Q 2756 1666 2539 1819 
Q 2322 1972 1947 1972 
L 1259 1972 
L 1259 0 
L 628 0 
L 628 4666 
L 2053 4666 
Q 2853 4666 3247 4331 
Q 3641 3997 3641 3322 
Q 3641 2881 3436 2590 
Q 3231 2300 2841 2188 
z
M 1259 4147 
L 1259 2491 
L 2053 2491 
Q 2509 2491 2742 2702 
Q 2975 2913 2975 3322 
Q 2975 3731 2742 3939 
Q 2509 4147 2053 4147 
L 1259 4147 
z
" transform="scale(0.015625)"/>
       <path id="DejaVuSans-65" d="M 3597 1894 
L 3597 1613 
L 953 1613 
Q 991 1019 1311 708 
Q 1631 397 2203 397 
Q 2534 397 2845 478 
Q 3156 559 3463 722 
L 3463 178 
Q 3153 47 2828 -22 
Q 2503 -91 2169 -91 
Q 1331 -91 842 396 
Q 353 884 353 1716 
Q 353 2575 817 3079 
Q 1281 3584 2069 3584 
Q 2775 3584 3186 3129 
Q 3597 2675 3597 1894 
z
M 3022 2063 
Q 3016 2534 2758 2815 
Q 2500 3097 2075 3097 
Q 1594 3097 1305 2825 
Q 1016 2553 972 2059 
L 3022 2063 
z
" transform="scale(0.015625)"/>
       <path id="DejaVuSans-61" d="M 2194 1759 
Q 1497 1759 1228 1600 
Q 959 1441 959 1056 
Q 959 750 1161 570 
Q 1363 391 1709 391 
Q 2188 391 2477 730 
Q 2766 1069 2766 1631 
L 2766 1759 
L 2194 1759 
z
M 3341 1997 
L 3341 0 
L 2766 0 
L 2766 531 
Q 2569 213 2275 61 
Q 1981 -91 1556 -91 
Q 1019 -91 701 211 
Q 384 513 384 1019 
Q 384 1609 779 1909 
Q 1175 2209 1959 2209 
L 2766 2209 
L 2766 2266 
Q 2766 2663 2505 2880 
Q 2244 3097 1772 3097 
Q 1472 3097 1187 3025 
Q 903 2953 641 2809 
L 641 3341 
Q 956 3463 1253 3523 
Q 1550 3584 1831 3584 
Q 2591 3584 2966 3190 
Q 3341 2797 3341 1997 
z
" transform="scale(0.015625)"/>
       <path id="DejaVuSans-63" d="M 3122 3366 
L 3122 2828 
Q 2878 2963 2633 3030 
Q 2388 3097 2138 3097 
Q 1578 3097 1268 2742 
Q 959 2388 959 1747 
Q 959 1106 1268 751 
Q 1578 397 2138 397 
Q 2388 397 2633 464 
Q 2878 531 3122 666 
L 3122 134 
Q 2881 22 2623 -34 
Q 2366 -91 2075 -91 
Q 1284 -91 818 406 
Q 353 903 353 1747 
Q 353 2603 823 3093 
Q 1294 3584 2113 3584 
Q 2378 3584 2631 3529 
Q 2884 3475 3122 3366 
z
" transform="scale(0.015625)"/>
       <path id="DejaVuSans-74" d="M 1172 4494 
L 1172 3500 
L 2356 3500 
L 2356 3053 
L 1172 3053 
L 1172 1153 
Q 1172 725 1289 603 
Q 1406 481 1766 481 
L 2356 481 
L 2356 0 
L 1766 0 
Q 1100 0 847 248 
Q 594 497 594 1153 
L 594 3053 
L 172 3053 
L 172 3500 
L 594 3500 
L 594 4494 
L 1172 4494 
z
" transform="scale(0.015625)"/>
       <path id="DejaVuSans-69" d="M 603 3500 
L 1178 3500 
L 1178 0 
L 603 0 
L 603 3500 
z
M 603 4863 
L 1178 4863 
L 1178 4134 
L 603 4134 
L 603 4863 
z
" transform="scale(0.015625)"/>
       <path id="DejaVuSans-6f" d="M 1959 3097 
Q 1497 3097 1228 2736 
Q 959 2375 959 1747 
Q 959 1119 1226 758 
Q 1494 397 1959 397 
Q 2419 397 2687 759 
Q 2956 1122 2956 1747 
Q 2956 2369 2687 2733 
Q 2419 3097 1959 3097 
z
M 1959 3584 
Q 2709 3584 3137 3096 
Q 3566 2609 3566 1747 
Q 3566 888 3137 398 
Q 2709 -91 1959 -91 
Q 1206 -91 779 398 
Q 353 888 353 1747 
Q 353 2609 779 3096 
Q 1206 3584 1959 3584 
z
" transform="scale(0.015625)"/>
       <path id="DejaVuSans-6e" d="M 3513 2113 
L 3513 0 
L 2938 0 
L 2938 2094 
Q 2938 2591 2744 2837 
Q 2550 3084 2163 3084 
Q 1697 3084 1428 2787 
Q 1159 2491 1159 1978 
L 1159 0 
L 581 0 
L 581 3500 
L 1159 3500 
L 1159 2956 
Q 1366 3272 1645 3428 
Q 1925 3584 2291 3584 
Q 2894 3584 3203 3211 
Q 3513 2838 3513 2113 
z
" transform="scale(0.015625)"/>
       <path id="DejaVuSans-20" transform="scale(0.015625)"/>
       <path id="DejaVuSans-44" d="M 1259 4147 
L 1259 519 
L 2022 519 
Q 2988 519 3436 956 
Q 3884 1394 3884 2338 
Q 3884 3275 3436 3711 
Q 2988 4147 2022 4147 
L 1259 4147 
z
M 628 4666 
L 1925 4666 
Q 3281 4666 3915 4102 
Q 4550 3538 4550 2338 
Q 4550 1131 3912 565 
Q 3275 0 1925 0 
L 628 0 
L 628 4666 
z
" transform="scale(0.015625)"/>
       <path id="DejaVuSans-6c" d="M 603 4863 
L 1178 4863 
L 1178 0 
L 603 0 
L 603 4863 
z
" transform="scale(0.015625)"/>
       <path id="DejaVuSans-79" d="M 2059 -325 
Q 1816 -950 1584 -1140 
Q 1353 -1331 966 -1331 
L 506 -1331 
L 506 -850 
L 844 -850 
Q 1081 -850 1212 -737 
Q 1344 -625 1503 -206 
L 1606 56 
L 191 3500 
L 800 3500 
L 1894 763 
L 2988 3500 
L 3597 3500 
L 2059 -325 
z
" transform="scale(0.015625)"/>
       <path id="DejaVuSans-28" d="M 1984 4856 
Q 1566 4138 1362 3434 
Q 1159 2731 1159 2009 
Q 1159 1288 1364 580 
Q 1569 -128 1984 -844 
L 1484 -844 
Q 1016 -109 783 600 
Q 550 1309 550 2009 
Q 550 2706 781 3412 
Q 1013 4119 1484 4856 
L 1984 4856 
z
" transform="scale(0.015625)"/>
       <path id="DejaVuSans-64" d="M 2906 2969 
L 2906 4863 
L 3481 4863 
L 3481 0 
L 2906 0 
L 2906 525 
Q 2725 213 2448 61 
Q 2172 -91 1784 -91 
Q 1150 -91 751 415 
Q 353 922 353 1747 
Q 353 2572 751 3078 
Q 1150 3584 1784 3584 
Q 2172 3584 2448 3432 
Q 2725 3281 2906 2969 
z
M 947 1747 
Q 947 1113 1208 752 
Q 1469 391 1925 391 
Q 2381 391 2643 752 
Q 2906 1113 2906 1747 
Q 2906 2381 2643 2742 
Q 2381 3103 1925 3103 
Q 1469 3103 1208 2742 
Q 947 2381 947 1747 
z
" transform="scale(0.015625)"/>
       <path id="DejaVuSans-73" d="M 2834 3397 
L 2834 2853 
Q 2591 2978 2328 3040 
Q 2066 3103 1784 3103 
Q 1356 3103 1142 2972 
Q 928 2841 928 2578 
Q 928 2378 1081 2264 
Q 1234 2150 1697 2047 
L 1894 2003 
Q 2506 1872 2764 1633 
Q 3022 1394 3022 966 
Q 3022 478 2636 193 
Q 2250 -91 1575 -91 
Q 1294 -91 989 -36 
Q 684 19 347 128 
L 347 722 
Q 666 556 975 473 
Q 1284 391 1588 391 
Q 1994 391 2212 530 
Q 2431 669 2431 922 
Q 2431 1156 2273 1281 
Q 2116 1406 1581 1522 
L 1381 1569 
Q 847 1681 609 1914 
Q 372 2147 372 2553 
Q 372 3047 722 3315 
Q 1072 3584 1716 3584 
Q 2034 3584 2315 3537 
Q 2597 3491 2834 3397 
z
" transform="scale(0.015625)"/>
       <path id="DejaVuSans-29" d="M 513 4856 
L 1013 4856 
Q 1481 4119 1714 3412 
Q 1947 2706 1947 2009 
Q 1947 1309 1714 600 
Q 1481 -109 1013 -844 
L 513 -844 
Q 928 -128 1133 580 
Q 1338 1288 1338 2009 
Q 1338 2731 1133 3434 
Q 928 4138 513 4856 
z
" transform="scale(0.015625)"/>
      </defs>
      <use xlink:href="#DejaVuSans-52"/>
      <use xlink:href="#DejaVuSans-65" x="64.982422"/>
      <use xlink:href="#DejaVuSans-61" x="126.505859"/>
      <use xlink:href="#DejaVuSans-63" x="187.785156"/>
      <use xlink:href="#DejaVuSans-74" x="242.765625"/>
      <use xlink:href="#DejaVuSans-69" x="281.974609"/>
      <use xlink:href="#DejaVuSans-6f" x="309.757812"/>
      <use xlink:href="#DejaVuSans-6e" x="370.939453"/>
      <use xlink:href="#DejaVuSans-20" x="434.318359"/>
      <use xlink:href="#DejaVuSans-44" x="466.105469"/>
      <use xlink:href="#DejaVuSans-65" x="543.107422"/>
      <use xlink:href="#DejaVuSans-6c" x="604.630859"/>
      <use xlink:href="#DejaVuSans-61" x="632.414062"/>
      <use xlink:href="#DejaVuSans-79" x="693.693359"/>
      <use xlink:href="#DejaVuSans-20" x="752.873047"/>
      <use xlink:href="#DejaVuSans-28" x="784.660156"/>
      <use xlink:href="#DejaVuSans-64" x="823.673828"/>
      <use xlink:href="#DejaVuSans-61" x="887.150391"/>
      <use xlink:href="#DejaVuSans-79" x="948.429688"/>
      <use xlink:href="#DejaVuSans-73" x="1007.609375"/>
      <use xlink:href="#DejaVuSans-29" x="1059.708984"/>
     </g>
    </g>
   </g>
   <g id="matplotlib.axis_2"/>
   <g id="line2d_8">
    <path d="M 160.306219 256.319421 
L 162.227997 256.264386 
L 165.110664 255.901994 
L 167.032443 255.767156 
L 168.954221 255.528562 
L 169.91511 255.254571 
L 170.875999 254.777282 
L 172.797778 253.445974 
L 174.719556 252.454552 
L 175.680445 251.180135 
L 177.602224 247.373048 
L 178.563113 245.699627 
L 179.524002 243.47822 
L 180.484891 240.724599 
L 181.44578 238.312441 
L 182.40667 236.478309 
L 183.367559 233.589709 
L 185.289337 225.008581 
L 189.132894 204.1289 
L 190.093783 197.708197 
L 192.976451 174.592977 
L 194.898229 161.525325 
L 195.859118 153.32195 
L 197.780896 135.645765 
L 198.741786 128.251745 
L 199.702675 119.875287 
L 200.663564 110.083604 
L 201.624453 101.949229 
L 202.585342 97.978066 
L 203.546232 94.981918 
L 204.507121 90.640893 
L 205.46801 84.979189 
L 206.428899 76.813673 
L 207.389788 67.657942 
L 208.350677 61.989889 
L 209.311567 59.592165 
L 210.272456 55.803266 
L 211.233345 50.608074 
L 212.194234 48.004585 
L 214.116012 49.631203 
L 215.076902 48.287169 
L 216.037791 46.52642 
L 216.99868 45.521151 
L 217.959569 45.12 
L 218.920458 46.563337 
L 219.881348 49.976161 
L 220.842237 52.957206 
L 221.803126 54.744409 
L 222.764015 56.972742 
L 223.724904 59.706078 
L 224.685793 61.98581 
L 226.607572 69.485944 
L 227.568461 73.994119 
L 229.490239 87.561799 
L 230.451128 92.664544 
L 231.412018 97.023973 
L 233.333796 109.982128 
L 235.255574 122.568087 
L 236.216464 128.35329 
L 237.177353 133.352458 
L 238.138242 136.137471 
L 239.099131 139.517331 
L 240.06002 145.531009 
L 241.020909 152.552435 
L 241.981799 158.413336 
L 242.942688 162.421516 
L 243.903577 165.819951 
L 244.864466 170.342456 
L 246.786244 182.673962 
L 247.747134 187.114728 
L 249.668912 193.909945 
L 251.59069 201.639203 
L 254.473358 209.934268 
L 255.434247 212.484152 
L 256.395136 214.702053 
L 257.356025 217.302955 
L 259.277804 224.190759 
L 260.238693 226.290815 
L 261.199582 228.035391 
L 262.160471 230.410446 
L 263.12136 232.489064 
L 265.043139 236.231795 
L 266.004028 237.196125 
L 266.964917 237.641735 
L 267.925806 238.653631 
L 268.886696 240.115543 
L 269.847585 241.89833 
L 270.808474 243.224151 
L 272.730252 244.680734 
L 274.652031 245.697334 
L 276.573809 247.798208 
L 277.534698 248.553283 
L 279.456477 249.588979 
L 282.339144 250.956216 
L 286.182701 253.207026 
L 288.104479 254.189427 
L 289.065368 254.493228 
L 290.026257 254.549862 
L 291.948036 254.433055 
L 293.869814 254.956716 
L 294.830703 254.811507 
L 295.791593 254.880905 
L 296.752482 255.203728 
L 297.713371 255.223413 
L 298.67426 255.050603 
L 299.635149 255.090613 
L 301.556928 255.426729 
L 302.517817 255.520783 
L 306.361373 255.544527 
L 307.322263 255.684499 
L 309.244041 255.765886 
L 311.165819 255.939026 
L 321.7356 256.14562 
L 323.657379 256.143599 
L 326.540046 256.296852 
L 332.305381 256.251732 
L 335.188049 256.319817 
L 351.523165 256.319549 
L 351.523165 256.319549 
" clip-path="url(#pf478477f59)" style="fill: none; stroke: #1f77b4; stroke-width: 1.5; stroke-linecap: square"/>
   </g>
   <g id="line2d_9">
    <path d="M 177.715875 256.319705 
L 184.943516 256.202113 
L 196.989584 255.762761 
L 201.808012 255.03306 
L 206.626439 254.254589 
L 209.035653 253.389466 
L 213.85408 251.124042 
L 216.263294 249.789355 
L 218.672507 248.240979 
L 221.081721 246.945833 
L 223.490935 245.44263 
L 225.900148 243.214763 
L 228.309362 240.546385 
L 233.127789 234.462749 
L 235.537003 231.677285 
L 237.946217 228.206559 
L 242.764644 219.752952 
L 247.583071 212.759526 
L 249.992285 208.594141 
L 252.401499 203.918156 
L 254.810713 199.774844 
L 257.219926 195.894527 
L 262.038354 186.989718 
L 264.447567 184.661475 
L 266.856781 183.289709 
L 269.265995 181.325932 
L 271.675208 178.487901 
L 274.084422 174.420461 
L 276.493636 170.81171 
L 278.902849 169.302279 
L 281.312063 168.063256 
L 283.721277 165.943194 
L 286.13049 164.804389 
L 290.948918 165.95109 
L 295.767345 165.09232 
L 298.176559 164.999016 
L 300.585772 165.401551 
L 302.994986 166.91589 
L 305.4042 168.733515 
L 310.222627 171.121169 
L 312.631841 172.619481 
L 315.041054 173.888798 
L 317.450268 175.694261 
L 319.859482 177.662523 
L 322.268695 179.938757 
L 327.087123 186.302209 
L 331.90555 190.741745 
L 339.133191 199.670324 
L 343.951618 204.883005 
L 346.360832 206.665972 
L 348.770046 207.794799 
L 351.179259 209.927991 
L 355.997687 215.764122 
L 358.4069 217.777536 
L 360.816114 219.253283 
L 363.225328 220.867698 
L 365.634541 223.299155 
L 368.043755 226.003487 
L 370.452969 228.107016 
L 372.862182 229.583408 
L 375.271396 230.912928 
L 380.089823 234.155513 
L 382.499037 235.448526 
L 387.317465 237.604036 
L 389.726678 238.709705 
L 394.545106 240.506583 
L 396.954319 241.75325 
L 399.363533 243.233308 
L 401.772747 244.305592 
L 404.18196 244.934309 
L 406.591174 245.699586 
L 409.000388 246.685774 
L 413.818815 248.073744 
L 416.228029 248.815547 
L 421.046456 249.202972 
L 423.45567 249.637907 
L 425.864883 250.194579 
L 428.274097 250.901253 
L 430.683311 251.377634 
L 437.910952 252.085359 
L 440.320165 252.225408 
L 447.547806 253.315495 
L 452.366234 253.722529 
L 466.821516 254.790438 
L 474.049157 255.324698 
L 478.867584 255.644449 
L 483.686011 255.665803 
L 488.504439 255.640075 
L 490.913652 255.80264 
L 493.322866 255.844412 
L 495.73208 255.743734 
L 498.141293 255.781688 
L 500.550507 255.934578 
L 505.368934 255.863882 
L 510.187362 255.921647 
L 517.415003 256.049266 
L 527.051858 256.029075 
L 531.870285 256.103819 
L 539.097926 256.177482 
L 587.282199 256.308045 
L 604.146695 256.315095 
L 657.149396 256.319809 
L 657.149396 256.319809 
" clip-path="url(#pf478477f59)" style="fill: none; stroke: #ff7f0e; stroke-width: 1.5; stroke-linecap: square"/>
   </g>
   <g id="line2d_10">
    <path d="M 184.261895 256.319744 
L 192.950548 256.214429 
L 207.431636 255.772407 
L 216.120289 254.773561 
L 219.016506 254.252882 
L 224.808941 252.305829 
L 227.705159 251.242207 
L 233.497594 248.655082 
L 236.393812 247.469066 
L 239.29003 245.699807 
L 242.186247 243.445549 
L 250.8749 235.666295 
L 253.771118 232.764642 
L 259.563553 225.408924 
L 265.355988 219.275485 
L 268.252206 215.678899 
L 271.148423 211.638197 
L 274.044641 208.054991 
L 276.940859 204.67566 
L 279.837076 200.728783 
L 282.733294 197.10584 
L 285.629511 195.282613 
L 288.525729 194.084789 
L 291.421947 192.32277 
L 294.318164 189.714548 
L 297.214382 186.156718 
L 300.1106 183.450191 
L 303.006817 182.43193 
L 305.903035 181.175211 
L 308.799252 179.442176 
L 311.69547 178.984127 
L 314.591688 179.707198 
L 317.487905 179.926907 
L 320.384123 179.51072 
L 323.280341 179.281294 
L 326.176558 179.337351 
L 329.072776 180.055568 
L 331.968993 181.622503 
L 334.865211 183.030151 
L 337.761429 183.98038 
L 346.450081 187.631246 
L 352.242517 191.052104 
L 355.138734 193.443036 
L 358.034952 196.296487 
L 360.93117 198.61266 
L 363.827387 200.336965 
L 366.723605 202.611189 
L 369.619822 205.272461 
L 375.412258 210.123554 
L 378.308475 212.325759 
L 381.204693 214.251875 
L 384.100911 215.284961 
L 386.997128 216.624676 
L 389.893346 218.92795 
L 392.789563 221.490358 
L 395.685781 223.515144 
L 398.581999 224.884795 
L 401.478216 226.114106 
L 404.374434 227.848872 
L 407.270651 230.148621 
L 410.166869 232.165652 
L 413.063087 233.586666 
L 415.959304 234.686228 
L 418.855522 235.941434 
L 421.75174 237.350732 
L 424.647957 238.560224 
L 436.232828 242.15779 
L 439.129045 242.872486 
L 442.025263 243.740474 
L 444.921481 244.967625 
L 447.817698 246.043579 
L 465.195004 249.8843 
L 468.091221 250.251778 
L 470.987439 250.327161 
L 473.883657 250.614045 
L 476.779874 251.02013 
L 482.57231 252.090893 
L 491.260962 252.772331 
L 494.15718 252.86082 
L 497.053398 253.074758 
L 502.845833 253.727588 
L 508.638268 254.112489 
L 526.015574 254.958216 
L 537.600444 255.55697 
L 543.39288 255.782827 
L 566.562621 255.908659 
L 569.458838 256.024119 
L 581.043709 256.00728 
L 592.628579 256.074122 
L 598.421014 256.045392 
L 618.694538 256.21286 
L 760.609201 256.31984 
L 760.609201 256.31984 
" clip-path="url(#pf478477f59)" style="fill: none; stroke: #2ca02c; stroke-width: 1.5; stroke-linecap: square"/>
   </g>
   <g id="line2d_11">
    <path d="M 190.941435 256.319773 
L 201.094372 256.224387 
L 214.631621 255.973789 
L 218.015934 255.784639 
L 228.168871 254.847679 
L 231.553183 254.250432 
L 238.321808 252.441596 
L 241.706121 251.38201 
L 245.090433 250.16699 
L 248.474745 249.124602 
L 251.859058 247.839431 
L 255.24337 246.000796 
L 258.627683 243.809041 
L 262.011995 241.369233 
L 268.78062 236.750914 
L 272.164932 233.70775 
L 275.549245 230.348354 
L 278.933557 227.409648 
L 282.317869 224.781127 
L 285.702182 221.764699 
L 289.086494 218.234574 
L 292.470807 214.930624 
L 295.855119 211.980426 
L 302.623744 205.251465 
L 306.008056 203.387257 
L 309.392369 202.362009 
L 312.776681 200.91018 
L 316.160993 198.747372 
L 319.545306 195.690044 
L 322.929618 193.195136 
L 329.698243 191.2133 
L 333.082556 189.713377 
L 336.466868 189.281374 
L 339.85118 189.92537 
L 343.235493 190.153968 
L 346.619805 189.81976 
L 350.004118 189.647699 
L 353.38843 189.729885 
L 356.772742 190.413442 
L 360.157055 191.816872 
L 363.541367 193.041908 
L 366.92568 193.889508 
L 377.078617 197.179007 
L 383.847242 200.224609 
L 387.231554 202.408269 
L 390.615866 204.886175 
L 394.000179 206.815336 
L 397.384491 208.335848 
L 400.768804 210.413182 
L 404.153116 212.720364 
L 410.921741 216.897345 
L 414.306053 218.804647 
L 417.690366 220.362219 
L 421.074678 221.196371 
L 424.45899 222.523774 
L 431.227615 226.796101 
L 434.611928 228.419344 
L 441.380552 230.64338 
L 444.764865 232.274465 
L 448.149177 234.268597 
L 451.53349 235.903466 
L 454.917802 237.042047 
L 458.302114 237.983327 
L 468.455052 241.29912 
L 475.223676 242.838145 
L 478.607989 243.656803 
L 488.760926 245.762917 
L 492.145239 246.834365 
L 495.529551 247.68216 
L 502.298176 248.645061 
L 505.682488 249.359983 
L 515.835425 250.92776 
L 519.219738 251.159737 
L 522.60405 251.234232 
L 529.372675 251.870335 
L 536.1413 252.768945 
L 546.294237 253.317585 
L 549.678549 253.386323 
L 556.447174 253.918987 
L 563.215799 254.320367 
L 593.674611 255.456355 
L 610.596173 255.874437 
L 620.74911 255.872671 
L 624.133422 255.988891 
L 634.286359 255.965232 
L 637.670672 256.069037 
L 654.592234 256.087788 
L 712.125545 256.281074 
L 864.419603 256.319862 
L 864.419603 256.319862 
" clip-path="url(#pf478477f59)" style="fill: none; stroke: #d62728; stroke-width: 1.5; stroke-linecap: square"/>
   </g>
   <g id="line2d_12">
    <path d="M 197.708958 256.319796 
L 209.328547 256.232618 
L 224.821332 255.991085 
L 232.567725 255.50745 
L 240.314117 254.903225 
L 244.187313 254.267993 
L 251.933706 252.586681 
L 263.553295 249.52861 
L 267.426491 248.157295 
L 271.299687 246.351372 
L 282.919276 240.069458 
L 286.792472 237.665436 
L 294.538865 231.816445 
L 302.285257 226.895466 
L 310.03165 220.757053 
L 317.778042 215.238996 
L 321.651238 212.084739 
L 325.524435 209.871703 
L 329.397631 208.875379 
L 333.270827 207.760427 
L 337.144023 206.084 
L 344.890416 201.016746 
L 348.763612 199.857844 
L 352.636808 199.123247 
L 356.510005 197.805745 
L 360.383201 197.105371 
L 368.129593 197.961153 
L 375.875986 197.543691 
L 379.749182 197.58634 
L 383.622378 198.063931 
L 391.368771 200.435213 
L 395.241967 201.226549 
L 406.861556 204.11461 
L 414.607948 206.799817 
L 418.481145 208.655045 
L 422.354341 210.872478 
L 426.227537 212.667193 
L 430.100733 214.011416 
L 433.97393 215.79507 
L 437.847126 217.849042 
L 445.593518 221.57369 
L 449.466715 223.265988 
L 453.339911 224.702581 
L 457.213107 225.462789 
L 461.086303 226.57242 
L 464.9595 228.387951 
L 468.832696 230.328733 
L 472.705892 231.801957 
L 480.452285 233.765003 
L 484.325481 235.164193 
L 488.198677 236.921591 
L 492.071873 238.386563 
L 495.94507 239.406843 
L 499.818266 240.232035 
L 511.437855 243.151197 
L 534.677032 247.052956 
L 538.550229 247.990897 
L 542.423425 248.751309 
L 550.169817 249.58984 
L 554.043014 250.213617 
L 565.662602 251.593974 
L 569.535799 251.820116 
L 573.408995 251.875262 
L 581.155387 252.41474 
L 588.90178 253.208594 
L 600.521369 253.6992 
L 608.267761 253.923535 
L 616.014154 254.405277 
L 627.633742 254.777725 
L 674.112097 255.933548 
L 685.731686 255.910346 
L 693.478079 256.03732 
L 701.224471 255.987422 
L 708.970864 256.104324 
L 716.717256 256.025635 
L 736.083237 256.156737 
L 747.702826 256.129589 
L 767.068807 256.225044 
L 817.420359 256.308236 
L 840.659536 256.308753 
L 865 256.291577 
L 865 256.291577 
" clip-path="url(#pf478477f59)" style="fill: none; stroke: #9467bd; stroke-width: 1.5; stroke-linecap: square"/>
   </g>
   <g id="line2d_13">
    <path d="M 204.537531 256.319815 
L 217.625535 256.239537 
L 235.076206 256.006362 
L 243.801542 255.542127 
L 252.526878 254.948836 
L 256.889546 254.305447 
L 265.614882 252.729443 
L 278.702886 249.865161 
L 283.065554 248.465559 
L 287.428222 246.721061 
L 296.153558 242.817707 
L 300.516226 240.926658 
L 304.878894 238.501884 
L 309.241562 235.755108 
L 313.60423 233.318609 
L 317.966898 231.162607 
L 322.329566 228.703178 
L 326.692234 225.837263 
L 331.054902 223.179972 
L 335.41757 220.771594 
L 339.780238 218.008014 
L 344.142906 215.422959 
L 348.505574 214.11549 
L 352.868242 213.275915 
L 357.23091 212.025265 
L 361.593578 210.115147 
L 365.956246 207.641976 
L 370.318914 206.022082 
L 374.681582 205.413605 
L 383.406918 203.407879 
L 387.769586 203.500197 
L 392.132254 204.03324 
L 396.494922 204.00604 
L 400.85759 203.778707 
L 405.220258 203.760482 
L 409.582926 204.005398 
L 413.945594 204.901451 
L 418.308262 206.061862 
L 435.758934 209.394576 
L 444.48427 211.747538 
L 448.846938 213.224906 
L 453.209606 215.204974 
L 457.572274 216.986365 
L 461.934942 218.239835 
L 466.29761 219.689165 
L 475.022946 223.282137 
L 479.385614 224.941368 
L 483.748282 226.473066 
L 488.11095 227.886697 
L 496.836286 229.504607 
L 501.198954 231.01027 
L 505.561622 232.773842 
L 509.92429 234.228331 
L 514.286958 235.200987 
L 518.649626 236.029117 
L 523.012294 237.14824 
L 527.374962 238.698063 
L 531.73763 240.102699 
L 536.100298 241.09672 
L 544.825634 242.672108 
L 549.188302 243.626757 
L 553.55097 244.458072 
L 571.001642 246.887765 
L 579.726978 247.920048 
L 588.452314 249.474395 
L 592.814982 249.916248 
L 597.17765 250.243625 
L 605.902986 251.244051 
L 610.265654 251.563571 
L 614.628322 252.028458 
L 618.99099 252.31614 
L 623.353658 252.356616 
L 632.078994 252.785455 
L 640.80433 253.499877 
L 653.892334 253.973352 
L 662.61767 254.139741 
L 671.343006 254.58497 
L 684.43101 254.931233 
L 736.783026 255.977642 
L 767.321702 256.002933 
L 776.047038 256.137732 
L 789.135042 256.077063 
L 806.585714 256.18134 
L 824.036386 256.16723 
L 841.487057 256.224215 
L 865 256.273761 
L 865 256.273761 
" clip-path="url(#pf478477f59)" style="fill: none; stroke: #8c564b; stroke-width: 1.5; stroke-linecap: square"/>
   </g>
   <g id="line2d_14">
    <path d="M 211.410115 256.319831 
L 230.820472 256.197283 
L 245.37824 256.020173 
L 255.083419 255.57756 
L 259.936008 255.341129 
L 264.788597 254.989797 
L 274.493775 253.646496 
L 279.346365 252.868247 
L 293.904132 250.155939 
L 298.756722 248.769287 
L 303.609311 247.093114 
L 308.4619 245.247416 
L 313.314489 243.535685 
L 318.167078 241.67835 
L 327.872257 236.824258 
L 337.577435 232.701792 
L 342.430025 230.287835 
L 347.282614 227.664249 
L 356.987792 223.090087 
L 361.840382 220.493808 
L 366.692971 218.582652 
L 376.398149 216.841883 
L 381.250738 215.481265 
L 390.955917 211.367877 
L 395.808506 210.463258 
L 400.661095 209.84988 
L 405.513685 208.789438 
L 410.366274 208.330915 
L 415.218863 208.781389 
L 420.071452 209.052735 
L 429.776631 208.761056 
L 434.62922 208.849268 
L 439.481809 209.369465 
L 444.334398 210.418074 
L 449.186988 211.332397 
L 454.039577 211.980641 
L 468.597345 214.481966 
L 478.302523 216.762836 
L 488.007702 220.202092 
L 492.860291 221.516603 
L 497.71288 222.664422 
L 512.270648 227.432248 
L 521.975826 230.222572 
L 526.828415 231.19162 
L 531.681005 231.790421 
L 536.533594 232.928146 
L 546.238772 235.974704 
L 551.091361 236.996238 
L 560.79654 238.614262 
L 570.501718 241.287349 
L 575.354308 242.321598 
L 589.912075 244.5831 
L 594.764665 245.392078 
L 599.617254 246.021497 
L 609.322432 247.117606 
L 619.027611 248.117325 
L 623.8802 248.5564 
L 638.437968 250.448244 
L 648.143146 251.136471 
L 652.995735 251.630972 
L 662.700914 252.301866 
L 667.553503 252.669138 
L 677.258681 252.836351 
L 686.96386 253.321336 
L 691.816449 253.676139 
L 696.669038 253.91059 
L 754.900109 255.266108 
L 803.426001 256.014809 
L 817.983769 256.006736 
L 827.688948 256.091774 
L 837.394126 256.064872 
L 847.099304 256.147775 
L 856.804483 256.08741 
L 865 256.148604 
L 865 256.148604 
" clip-path="url(#pf478477f59)" style="fill: none; stroke: #e377c2; stroke-width: 1.5; stroke-linecap: square"/>
   </g>
   <g id="line2d_15">
    <path d="M 218.315614 256.319844 
L 239.687053 256.205891 
L 255.715633 256.032825 
L 271.744213 255.389469 
L 277.087073 255.028687 
L 287.772793 253.754767 
L 303.801372 251.389106 
L 309.144232 250.416988 
L 314.487092 249.064577 
L 330.515672 244.19319 
L 335.858532 242.351951 
L 346.544252 237.864169 
L 357.229971 234.049787 
L 367.915691 229.366946 
L 373.258551 227.330714 
L 383.944271 222.794844 
L 389.287131 221.44802 
L 394.629991 220.759827 
L 399.972851 219.80472 
L 405.315711 218.335916 
L 410.658571 216.296867 
L 416.001431 214.778833 
L 421.34429 214.229752 
L 426.68715 213.474647 
L 432.03001 212.596376 
L 437.37287 212.596358 
L 442.71573 213.068641 
L 448.05859 213.100025 
L 453.40145 212.923043 
L 458.74431 212.915731 
L 464.08717 213.124017 
L 469.43003 213.871103 
L 474.77289 214.853829 
L 496.144329 217.688405 
L 506.830049 219.67332 
L 512.172909 220.935805 
L 517.515769 222.595187 
L 522.858629 224.054463 
L 528.201489 225.08721 
L 533.544349 226.33069 
L 544.230068 229.313968 
L 554.915788 231.949699 
L 560.258648 233.089295 
L 565.601508 233.704745 
L 570.944368 234.44554 
L 576.287228 235.74257 
L 581.630088 237.194599 
L 586.972948 238.340165 
L 597.658668 239.801944 
L 603.001527 240.784229 
L 608.344387 242.07672 
L 613.687247 243.187653 
L 619.030107 243.962767 
L 629.715827 245.274942 
L 635.058687 246.055877 
L 640.401547 246.714389 
L 677.801566 250.233597 
L 683.144426 250.808076 
L 720.544445 253.070346 
L 725.887305 253.100123 
L 736.573025 253.471864 
L 747.258745 254.054158 
L 763.287325 254.423268 
L 773.973045 254.562695 
L 784.658764 254.92195 
L 806.030204 255.272222 
L 865 256.042735 
L 865 256.042735 
" clip-path="url(#pf478477f59)" style="fill: none; stroke: #7f7f7f; stroke-width: 1.5; stroke-linecap: square"/>
   </g>
   <g id="patch_3">
    <path d="M 108 256.32 
L 108 34.56 
" style="fill: none; stroke: #000000; stroke-width: 0.8; stroke-linejoin: miter; stroke-linecap: square"/>
   </g>
   <g id="patch_4">
    <path d="M 777.6 256.32 
L 777.6 34.56 
" style="fill: none; stroke: #000000; stroke-width: 0.8; stroke-linejoin: miter; stroke-linecap: square"/>
   </g>
   <g id="patch_5">
    <path d="M 108 256.32 
L 777.6 256.32 
" style="fill: none; stroke: #000000; stroke-width: 0.8; stroke-linejoin: miter; stroke-linecap: square"/>
   </g>
   <g id="patch_6">
    <path d="M 108 34.56 
L 777.6 34.56 
" style="fill: none; stroke: #000000; stroke-width: 0.8; stroke-linejoin: miter; stroke-linecap: square"/>
   </g>
   <g id="legend_1">
    <g id="patch_7">
     <path d="M 535.874687 210.155 
L 767.8 210.155 
Q 770.6 210.155 770.6 207.355 
L 770.6 44.36 
Q 770.6 41.56 767.8 41.56 
L 535.874687 41.56 
Q 533.074687 41.56 533.074687 44.36 
L 533.074687 207.355 
Q 533.074687 210.155 535.874687 210.155 
z
" style="fill: #ffffff; opacity: 0.8; stroke: #cccccc; stroke-linejoin: miter"/>
    </g>
    <g id="line2d_16">
     <path d="M 538.674688 52.897813 
L 552.674688 52.897813 
L 566.674688 52.897813 
" style="fill: none; stroke: #1f77b4; stroke-width: 1.5; stroke-linecap: square"/>
    </g>
    <g id="text_9">
     <!-- Delay: 15.0 days (Original) -->
     <g transform="translate(577.874688 57.797813) scale(0.14 -0.14)">
      <defs>
       <path id="DejaVuSans-3a" d="M 750 794 
L 1409 794 
L 1409 0 
L 750 0 
L 750 794 
z
M 750 3309 
L 1409 3309 
L 1409 2516 
L 750 2516 
L 750 3309 
z
" transform="scale(0.015625)"/>
       <path id="DejaVuSans-2e" d="M 684 794 
L 1344 794 
L 1344 0 
L 684 0 
L 684 794 
z
" transform="scale(0.015625)"/>
       <path id="DejaVuSans-4f" d="M 2522 4238 
Q 1834 4238 1429 3725 
Q 1025 3213 1025 2328 
Q 1025 1447 1429 934 
Q 1834 422 2522 422 
Q 3209 422 3611 934 
Q 4013 1447 4013 2328 
Q 4013 3213 3611 3725 
Q 3209 4238 2522 4238 
z
M 2522 4750 
Q 3503 4750 4090 4092 
Q 4678 3434 4678 2328 
Q 4678 1225 4090 567 
Q 3503 -91 2522 -91 
Q 1538 -91 948 565 
Q 359 1222 359 2328 
Q 359 3434 948 4092 
Q 1538 4750 2522 4750 
z
" transform="scale(0.015625)"/>
       <path id="DejaVuSans-72" d="M 2631 2963 
Q 2534 3019 2420 3045 
Q 2306 3072 2169 3072 
Q 1681 3072 1420 2755 
Q 1159 2438 1159 1844 
L 1159 0 
L 581 0 
L 581 3500 
L 1159 3500 
L 1159 2956 
Q 1341 3275 1631 3429 
Q 1922 3584 2338 3584 
Q 2397 3584 2469 3576 
Q 2541 3569 2628 3553 
L 2631 2963 
z
" transform="scale(0.015625)"/>
       <path id="DejaVuSans-67" d="M 2906 1791 
Q 2906 2416 2648 2759 
Q 2391 3103 1925 3103 
Q 1463 3103 1205 2759 
Q 947 2416 947 1791 
Q 947 1169 1205 825 
Q 1463 481 1925 481 
Q 2391 481 2648 825 
Q 2906 1169 2906 1791 
z
M 3481 434 
Q 3481 -459 3084 -895 
Q 2688 -1331 1869 -1331 
Q 1566 -1331 1297 -1286 
Q 1028 -1241 775 -1147 
L 775 -588 
Q 1028 -725 1275 -790 
Q 1522 -856 1778 -856 
Q 2344 -856 2625 -561 
Q 2906 -266 2906 331 
L 2906 616 
Q 2728 306 2450 153 
Q 2172 0 1784 0 
Q 1141 0 747 490 
Q 353 981 353 1791 
Q 353 2603 747 3093 
Q 1141 3584 1784 3584 
Q 2172 3584 2450 3431 
Q 2728 3278 2906 2969 
L 2906 3500 
L 3481 3500 
L 3481 434 
z
" transform="scale(0.015625)"/>
      </defs>
      <use xlink:href="#DejaVuSans-44"/>
      <use xlink:href="#DejaVuSans-65" x="77.001953"/>
      <use xlink:href="#DejaVuSans-6c" x="138.525391"/>
      <use xlink:href="#DejaVuSans-61" x="166.308594"/>
      <use xlink:href="#DejaVuSans-79" x="227.587891"/>
      <use xlink:href="#DejaVuSans-3a" x="279.517578"/>
      <use xlink:href="#DejaVuSans-20" x="313.208984"/>
      <use xlink:href="#DejaVuSans-31" x="344.996094"/>
      <use xlink:href="#DejaVuSans-35" x="408.619141"/>
      <use xlink:href="#DejaVuSans-2e" x="472.242188"/>
      <use xlink:href="#DejaVuSans-30" x="504.029297"/>
      <use xlink:href="#DejaVuSans-20" x="567.652344"/>
      <use xlink:href="#DejaVuSans-64" x="599.439453"/>
      <use xlink:href="#DejaVuSans-61" x="662.916016"/>
      <use xlink:href="#DejaVuSans-79" x="724.195312"/>
      <use xlink:href="#DejaVuSans-73" x="783.375"/>
      <use xlink:href="#DejaVuSans-20" x="835.474609"/>
      <use xlink:href="#DejaVuSans-28" x="867.261719"/>
      <use xlink:href="#DejaVuSans-4f" x="906.275391"/>
      <use xlink:href="#DejaVuSans-72" x="984.986328"/>
      <use xlink:href="#DejaVuSans-69" x="1026.099609"/>
      <use xlink:href="#DejaVuSans-67" x="1053.882812"/>
      <use xlink:href="#DejaVuSans-69" x="1117.359375"/>
      <use xlink:href="#DejaVuSans-6e" x="1145.142578"/>
      <use xlink:href="#DejaVuSans-61" x="1208.521484"/>
      <use xlink:href="#DejaVuSans-6c" x="1269.800781"/>
      <use xlink:href="#DejaVuSans-29" x="1297.583984"/>
     </g>
    </g>
    <g id="line2d_17">
     <path d="M 538.674688 73.447188 
L 552.674688 73.447188 
L 566.674688 73.447188 
" style="fill: none; stroke: #ff7f0e; stroke-width: 1.5; stroke-linecap: square"/>
    </g>
    <g id="text_10">
     <!-- Delay: 30.0 days -->
     <g transform="translate(577.874688 78.347188) scale(0.14 -0.14)">
      <use xlink:href="#DejaVuSans-44"/>
      <use xlink:href="#DejaVuSans-65" x="77.001953"/>
      <use xlink:href="#DejaVuSans-6c" x="138.525391"/>
      <use xlink:href="#DejaVuSans-61" x="166.308594"/>
      <use xlink:href="#DejaVuSans-79" x="227.587891"/>
      <use xlink:href="#DejaVuSans-3a" x="279.517578"/>
      <use xlink:href="#DejaVuSans-20" x="313.208984"/>
      <use xlink:href="#DejaVuSans-33" x="344.996094"/>
      <use xlink:href="#DejaVuSans-30" x="408.619141"/>
      <use xlink:href="#DejaVuSans-2e" x="472.242188"/>
      <use xlink:href="#DejaVuSans-30" x="504.029297"/>
      <use xlink:href="#DejaVuSans-20" x="567.652344"/>
      <use xlink:href="#DejaVuSans-64" x="599.439453"/>
      <use xlink:href="#DejaVuSans-61" x="662.916016"/>
      <use xlink:href="#DejaVuSans-79" x="724.195312"/>
      <use xlink:href="#DejaVuSans-73" x="783.375"/>
     </g>
    </g>
    <g id="line2d_18">
     <path d="M 538.674688 93.996563 
L 552.674688 93.996563 
L 566.674688 93.996563 
" style="fill: none; stroke: #2ca02c; stroke-width: 1.5; stroke-linecap: square"/>
    </g>
    <g id="text_11">
     <!-- Delay: 35.0 days -->
     <g transform="translate(577.874688 98.896563) scale(0.14 -0.14)">
      <use xlink:href="#DejaVuSans-44"/>
      <use xlink:href="#DejaVuSans-65" x="77.001953"/>
      <use xlink:href="#DejaVuSans-6c" x="138.525391"/>
      <use xlink:href="#DejaVuSans-61" x="166.308594"/>
      <use xlink:href="#DejaVuSans-79" x="227.587891"/>
      <use xlink:href="#DejaVuSans-3a" x="279.517578"/>
      <use xlink:href="#DejaVuSans-20" x="313.208984"/>
      <use xlink:href="#DejaVuSans-33" x="344.996094"/>
      <use xlink:href="#DejaVuSans-35" x="408.619141"/>
      <use xlink:href="#DejaVuSans-2e" x="472.242188"/>
      <use xlink:href="#DejaVuSans-30" x="504.029297"/>
      <use xlink:href="#DejaVuSans-20" x="567.652344"/>
      <use xlink:href="#DejaVuSans-64" x="599.439453"/>
      <use xlink:href="#DejaVuSans-61" x="662.916016"/>
      <use xlink:href="#DejaVuSans-79" x="724.195312"/>
      <use xlink:href="#DejaVuSans-73" x="783.375"/>
     </g>
    </g>
    <g id="line2d_19">
     <path d="M 538.674688 114.545938 
L 552.674688 114.545938 
L 566.674688 114.545938 
" style="fill: none; stroke: #d62728; stroke-width: 1.5; stroke-linecap: square"/>
    </g>
    <g id="text_12">
     <!-- Delay: 40.0 days -->
     <g transform="translate(577.874688 119.445938) scale(0.14 -0.14)">
      <use xlink:href="#DejaVuSans-44"/>
      <use xlink:href="#DejaVuSans-65" x="77.001953"/>
      <use xlink:href="#DejaVuSans-6c" x="138.525391"/>
      <use xlink:href="#DejaVuSans-61" x="166.308594"/>
      <use xlink:href="#DejaVuSans-79" x="227.587891"/>
      <use xlink:href="#DejaVuSans-3a" x="279.517578"/>
      <use xlink:href="#DejaVuSans-20" x="313.208984"/>
      <use xlink:href="#DejaVuSans-34" x="344.996094"/>
      <use xlink:href="#DejaVuSans-30" x="408.619141"/>
      <use xlink:href="#DejaVuSans-2e" x="472.242188"/>
      <use xlink:href="#DejaVuSans-30" x="504.029297"/>
      <use xlink:href="#DejaVuSans-20" x="567.652344"/>
      <use xlink:href="#DejaVuSans-64" x="599.439453"/>
      <use xlink:href="#DejaVuSans-61" x="662.916016"/>
      <use xlink:href="#DejaVuSans-79" x="724.195312"/>
      <use xlink:href="#DejaVuSans-73" x="783.375"/>
     </g>
    </g>
    <g id="line2d_20">
     <path d="M 538.674688 135.095313 
L 552.674688 135.095313 
L 566.674688 135.095313 
" style="fill: none; stroke: #9467bd; stroke-width: 1.5; stroke-linecap: square"/>
    </g>
    <g id="text_13">
     <!-- Delay: 45.0 days -->
     <g transform="translate(577.874688 139.995313) scale(0.14 -0.14)">
      <use xlink:href="#DejaVuSans-44"/>
      <use xlink:href="#DejaVuSans-65" x="77.001953"/>
      <use xlink:href="#DejaVuSans-6c" x="138.525391"/>
      <use xlink:href="#DejaVuSans-61" x="166.308594"/>
      <use xlink:href="#DejaVuSans-79" x="227.587891"/>
      <use xlink:href="#DejaVuSans-3a" x="279.517578"/>
      <use xlink:href="#DejaVuSans-20" x="313.208984"/>
      <use xlink:href="#DejaVuSans-34" x="344.996094"/>
      <use xlink:href="#DejaVuSans-35" x="408.619141"/>
      <use xlink:href="#DejaVuSans-2e" x="472.242188"/>
      <use xlink:href="#DejaVuSans-30" x="504.029297"/>
      <use xlink:href="#DejaVuSans-20" x="567.652344"/>
      <use xlink:href="#DejaVuSans-64" x="599.439453"/>
      <use xlink:href="#DejaVuSans-61" x="662.916016"/>
      <use xlink:href="#DejaVuSans-79" x="724.195312"/>
      <use xlink:href="#DejaVuSans-73" x="783.375"/>
     </g>
    </g>
    <g id="line2d_21">
     <path d="M 538.674688 155.644688 
L 552.674688 155.644688 
L 566.674688 155.644688 
" style="fill: none; stroke: #8c564b; stroke-width: 1.5; stroke-linecap: square"/>
    </g>
    <g id="text_14">
     <!-- Delay: 50.0 days -->
     <g transform="translate(577.874688 160.544688) scale(0.14 -0.14)">
      <use xlink:href="#DejaVuSans-44"/>
      <use xlink:href="#DejaVuSans-65" x="77.001953"/>
      <use xlink:href="#DejaVuSans-6c" x="138.525391"/>
      <use xlink:href="#DejaVuSans-61" x="166.308594"/>
      <use xlink:href="#DejaVuSans-79" x="227.587891"/>
      <use xlink:href="#DejaVuSans-3a" x="279.517578"/>
      <use xlink:href="#DejaVuSans-20" x="313.208984"/>
      <use xlink:href="#DejaVuSans-35" x="344.996094"/>
      <use xlink:href="#DejaVuSans-30" x="408.619141"/>
      <use xlink:href="#DejaVuSans-2e" x="472.242188"/>
      <use xlink:href="#DejaVuSans-30" x="504.029297"/>
      <use xlink:href="#DejaVuSans-20" x="567.652344"/>
      <use xlink:href="#DejaVuSans-64" x="599.439453"/>
      <use xlink:href="#DejaVuSans-61" x="662.916016"/>
      <use xlink:href="#DejaVuSans-79" x="724.195312"/>
      <use xlink:href="#DejaVuSans-73" x="783.375"/>
     </g>
    </g>
    <g id="line2d_22">
     <path d="M 538.674688 176.194063 
L 552.674688 176.194063 
L 566.674688 176.194063 
" style="fill: none; stroke: #e377c2; stroke-width: 1.5; stroke-linecap: square"/>
    </g>
    <g id="text_15">
     <!-- Delay: 55.0 days -->
     <g transform="translate(577.874688 181.094063) scale(0.14 -0.14)">
      <use xlink:href="#DejaVuSans-44"/>
      <use xlink:href="#DejaVuSans-65" x="77.001953"/>
      <use xlink:href="#DejaVuSans-6c" x="138.525391"/>
      <use xlink:href="#DejaVuSans-61" x="166.308594"/>
      <use xlink:href="#DejaVuSans-79" x="227.587891"/>
      <use xlink:href="#DejaVuSans-3a" x="279.517578"/>
      <use xlink:href="#DejaVuSans-20" x="313.208984"/>
      <use xlink:href="#DejaVuSans-35" x="344.996094"/>
      <use xlink:href="#DejaVuSans-35" x="408.619141"/>
      <use xlink:href="#DejaVuSans-2e" x="472.242188"/>
      <use xlink:href="#DejaVuSans-30" x="504.029297"/>
      <use xlink:href="#DejaVuSans-20" x="567.652344"/>
      <use xlink:href="#DejaVuSans-64" x="599.439453"/>
      <use xlink:href="#DejaVuSans-61" x="662.916016"/>
      <use xlink:href="#DejaVuSans-79" x="724.195312"/>
      <use xlink:href="#DejaVuSans-73" x="783.375"/>
     </g>
    </g>
    <g id="line2d_23">
     <path d="M 538.674688 196.743438 
L 552.674688 196.743438 
L 566.674688 196.743438 
" style="fill: none; stroke: #7f7f7f; stroke-width: 1.5; stroke-linecap: square"/>
    </g>
    <g id="text_16">
     <!-- Delay: 60.0 days -->
     <g transform="translate(577.874688 201.643438) scale(0.14 -0.14)">
      <use xlink:href="#DejaVuSans-44"/>
      <use xlink:href="#DejaVuSans-65" x="77.001953"/>
      <use xlink:href="#DejaVuSans-6c" x="138.525391"/>
      <use xlink:href="#DejaVuSans-61" x="166.308594"/>
      <use xlink:href="#DejaVuSans-79" x="227.587891"/>
      <use xlink:href="#DejaVuSans-3a" x="279.517578"/>
      <use xlink:href="#DejaVuSans-20" x="313.208984"/>
      <use xlink:href="#DejaVuSans-36" x="344.996094"/>
      <use xlink:href="#DejaVuSans-30" x="408.619141"/>
      <use xlink:href="#DejaVuSans-2e" x="472.242188"/>
      <use xlink:href="#DejaVuSans-30" x="504.029297"/>
      <use xlink:href="#DejaVuSans-20" x="567.652344"/>
      <use xlink:href="#DejaVuSans-64" x="599.439453"/>
      <use xlink:href="#DejaVuSans-61" x="662.916016"/>
      <use xlink:href="#DejaVuSans-79" x="724.195312"/>
      <use xlink:href="#DejaVuSans-73" x="783.375"/>
     </g>
    </g>
   </g>
  </g>
 </g>
 <defs>
  <clipPath id="pf478477f59">
   <rect x="108" y="34.56" width="669.6" height="221.76"/>
  </clipPath>
 </defs>
</svg>
