<?xml version="1.0" encoding="utf-8" standalone="no"?>
<!DOCTYPE svg PUBLIC "-//W3C//DTD SVG 1.1//EN"
  "http://www.w3.org/Graphics/SVG/1.1/DTD/svg11.dtd">
<svg xmlns:xlink="http://www.w3.org/1999/xlink" width="1080pt" height="432pt" viewBox="0 0 1080 432" xmlns="http://www.w3.org/2000/svg" version="1.1">
 <metadata>
  <rdf:RDF xmlns:dc="http://purl.org/dc/elements/1.1/" xmlns:cc="http://creativecommons.org/ns#" xmlns:rdf="http://www.w3.org/1999/02/22-rdf-syntax-ns#">
   <cc:Work>
    <dc:type rdf:resource="http://purl.org/dc/dcmitype/StillImage"/>
    <dc:date>2025-02-06T15:23:43.213717</dc:date>
    <dc:format>image/svg+xml</dc:format>
    <dc:creator>
     <cc:Agent>
      <dc:title>Matplotlib v3.8.4, https://matplotlib.org/</dc:title>
     </cc:Agent>
    </dc:creator>
   </cc:Work>
  </rdf:RDF>
 </metadata>
 <defs>
  <style type="text/css">*{stroke-linejoin: round; stroke-linecap: butt}</style>
 </defs>
 <g id="figure_1">
  <g id="patch_1">
   <path d="M 0 432 
L 1080 432 
L 1080 0 
L 0 0 
L 0 432 
z
" style="fill: none"/>
  </g>
  <g id="axes_1">
   <g id="patch_2">
    <path d="M 167.134982 113.391982 
C 166.835671 113.748686 166.537773 114.106572 166.241293 114.465633 
C 165.944814 114.824693 165.649755 115.184924 165.356125 115.546318 
L 199.625191 143.389735 
C 199.845414 143.11869 200.066708 142.848516 200.289067 142.579221 
C 200.511427 142.309926 200.734851 142.041511 200.959334 141.773983 
z
" style="fill: #1f77b4; stroke: #ffffff; stroke-width: 0.25; stroke-linejoin: miter"/>
   </g>
   <g id="patch_3">
    <path d="M 165.356138 115.546309 
C 155.475645 127.707007 147.257166 141.128651 140.917373 155.457429 
C 134.577579 169.786207 130.172655 184.895108 127.818695 200.385933 
L 171.472119 207.019447 
C 173.237589 195.401328 176.541282 184.069652 181.296127 173.323068 
C 186.050972 162.576485 192.214832 152.510252 199.625201 143.389728 
z
" style="fill: #ff7f0e; stroke: #ffffff; stroke-width: 0.25; stroke-linejoin: miter"/>
   </g>
   <g id="patch_4">
    <path d="M 127.818695 200.385933 
C 127.692779 201.214577 127.572757 202.044107 127.458652 202.874458 
C 127.344547 203.704809 127.236337 204.535966 127.134065 205.367858 
L 170.958646 210.755891 
C 171.035351 210.131971 171.116508 209.508604 171.202087 208.88584 
C 171.287665 208.263077 171.377681 207.640929 171.472119 207.019447 
z
" style="fill: #2ca02c; stroke: #ffffff; stroke-width: 0.25; stroke-linejoin: miter"/>
   </g>
   <g id="patch_5">
    <path d="M 127.134065 205.367858 
C 124.564665 226.266602 125.753109 247.457422 130.643171 267.937818 
C 135.533245 288.418215 144.046582 307.860028 155.780462 325.343602 
C 167.514343 342.82717 182.28075 358.072336 199.381158 370.357919 
C 216.481565 382.643502 235.641948 391.772622 255.955946 397.313459 
C 276.269943 402.854296 297.412117 404.718043 318.382182 402.816545 
C 339.352245 400.915037 359.814251 395.278759 378.80026 386.174327 
C 397.786264 377.069894 414.992112 364.64314 429.603727 349.482003 
C 444.215341 334.320865 455.998679 316.66826 464.396311 297.359217 
C 472.793943 278.050173 477.67132 257.394121 478.797716 236.368172 
C 479.924102 215.342221 477.281485 194.283309 470.994822 174.187604 
C 464.70816 154.0919 454.87823 135.281428 441.970001 118.64601 
C 429.061772 102.010592 413.282105 87.816805 395.377457 76.736067 
C 377.472808 65.65533 357.730078 57.865195 337.083187 53.73419 
C 316.436295 49.603196 295.215925 49.197517 274.426229 52.536356 
C 253.636531 55.875194 233.61048 62.905039 215.295395 73.293356 
C 196.980309 83.681673 180.669689 97.261973 167.135077 113.391872 
L 200.959405 141.773901 
C 211.110364 129.676477 223.343329 119.491252 237.079644 111.700014 
C 250.815958 103.908776 265.835496 98.636392 281.427769 96.132264 
C 297.020041 93.628135 312.935319 93.932394 328.420488 97.030639 
C 343.905656 100.128893 358.712704 105.971494 372.14119 114.282047 
C 385.569677 122.5926 397.404427 133.237941 407.085598 145.714504 
C 416.76677 158.191068 424.139217 172.298922 428.854214 187.3707 
C 433.569211 202.442478 435.551174 218.236662 434.706385 234.006125 
C 433.861587 249.775588 430.203554 265.267627 423.90533 279.749409 
C 417.607106 294.231192 408.769603 307.470646 397.810892 318.841499 
C 386.852182 330.212352 373.947795 339.532417 359.708292 346.360742 
C 345.468786 353.189066 330.122281 357.416274 314.394734 358.842406 
C 298.667185 360.268529 282.810555 358.870719 267.575057 354.715091 
C 252.339558 350.559463 237.969271 343.712624 225.143966 334.498436 
C 212.31866 325.284249 201.243855 313.850374 192.443444 300.737698 
C 183.643034 287.625018 177.258031 273.043658 173.590476 257.68336 
C 169.922929 242.323064 169.031596 226.429948 170.958646 210.755891 
z
" style="fill: #d62728; stroke: #ffffff; stroke-width: 0.25; stroke-linejoin: miter"/>
   </g>
   <g id="matplotlib.axis_1"/>
   <g id="matplotlib.axis_2"/>
   <g id="text_1">
    <!-- CEX -->
    <g transform="translate(116.349376 108.187067) scale(0.18 -0.18)">
     <defs>
      <path id="DejaVuSans-43" d="M 4122 4306 
L 4122 3641 
Q 3803 3938 3442 4084 
Q 3081 4231 2675 4231 
Q 1875 4231 1450 3742 
Q 1025 3253 1025 2328 
Q 1025 1406 1450 917 
Q 1875 428 2675 428 
Q 3081 428 3442 575 
Q 3803 722 4122 1019 
L 4122 359 
Q 3791 134 3420 21 
Q 3050 -91 2638 -91 
Q 1578 -91 968 557 
Q 359 1206 359 2328 
Q 359 3453 968 4101 
Q 1578 4750 2638 4750 
Q 3056 4750 3426 4639 
Q 3797 4528 4122 4306 
z
" transform="scale(0.015625)"/>
      <path id="DejaVuSans-45" d="M 628 4666 
L 3578 4666 
L 3578 4134 
L 1259 4134 
L 1259 2753 
L 3481 2753 
L 3481 2222 
L 1259 2222 
L 1259 531 
L 3634 531 
L 3634 0 
L 628 0 
L 628 4666 
z
" transform="scale(0.015625)"/>
      <path id="DejaVuSans-58" d="M 403 4666 
L 1081 4666 
L 2241 2931 
L 3406 4666 
L 4084 4666 
L 2584 2425 
L 4184 0 
L 3506 0 
L 2194 1984 
L 872 0 
L 191 0 
L 1856 2491 
L 403 4666 
z
" transform="scale(0.015625)"/>
     </defs>
     <use xlink:href="#DejaVuSans-43"/>
     <use xlink:href="#DejaVuSans-45" x="69.824219"/>
     <use xlink:href="#DejaVuSans-58" x="133.007812"/>
    </g>
   </g>
   <g id="text_2">
    <path d="M 196.551328 152.461122 
Q 195.181641 152.461122 194.489766 153.811122 
Q 193.800703 155.158309 193.800703 157.866747 
Q 193.800703 160.563934 194.489766 161.913934 
Q 195.181641 163.263934 196.551328 163.263934 
Q 197.932266 163.263934 198.621328 161.913934 
Q 199.313203 160.563934 199.313203 157.866747 
Q 199.313203 155.158309 198.621328 153.811122 
Q 197.932266 152.461122 196.551328 152.461122 
z
M 196.551328 151.054872 
Q 198.759141 151.054872 199.923516 152.801434 
Q 201.087891 154.545184 201.087891 157.866747 
Q 201.087891 161.179872 199.923516 162.926434 
Q 198.759141 164.670184 196.551328 164.670184 
Q 194.346328 164.670184 193.181953 162.926434 
Q 192.017578 161.179872 192.017578 157.866747 
Q 192.017578 154.545184 193.181953 152.801434 
Q 194.346328 151.054872 196.551328 151.054872 
z
M 215.369414 158.640184 
Q 214.604414 158.640184 214.168477 159.289872 
Q 213.735352 159.939559 213.735352 161.101122 
Q 213.735352 162.242997 214.168477 162.898309 
Q 214.604414 163.553622 215.369414 163.553622 
Q 216.117539 163.553622 216.550664 162.898309 
Q 216.986602 162.242997 216.986602 161.101122 
Q 216.986602 159.947997 216.550664 159.295497 
Q 216.117539 158.640184 215.369414 158.640184 
z
M 215.369414 157.523622 
Q 216.758789 157.523622 217.574414 158.491122 
Q 218.392852 159.455809 218.392852 161.101122 
Q 218.392852 162.743622 217.571602 163.708309 
Q 216.750352 164.670184 215.369414 164.670184 
Q 213.963164 164.670184 213.144727 163.708309 
Q 212.329102 162.743622 212.329102 161.101122 
Q 212.329102 159.447372 213.150352 158.485497 
Q 213.971602 157.523622 215.369414 157.523622 
z
M 206.299102 152.171434 
Q 205.542539 152.171434 205.106602 152.826747 
Q 204.673477 153.479247 204.673477 154.623934 
Q 204.673477 155.782684 205.103789 156.435184 
Q 205.534102 157.084872 206.299102 157.084872 
Q 207.064102 157.084872 207.497227 156.435184 
Q 207.933164 155.782684 207.933164 154.623934 
Q 207.933164 153.490497 207.494414 152.832372 
Q 207.055664 152.171434 206.299102 152.171434 
z
M 214.235977 151.054872 
L 215.642227 151.054872 
L 207.432539 164.670184 
L 206.026289 164.670184 
L 214.235977 151.054872 
z
M 206.299102 151.054872 
Q 207.688477 151.054872 208.512539 152.016747 
Q 209.339414 152.978622 209.339414 154.623934 
Q 209.339414 156.283309 208.518164 157.242372 
Q 207.696914 158.201434 206.299102 158.201434 
Q 204.901289 158.201434 204.088477 157.239559 
Q 203.275664 156.274872 203.275664 154.623934 
Q 203.275664 152.987059 204.091289 152.022372 
Q 204.909727 151.054872 206.299102 151.054872 
z
M 230.688047 150.756747 
Q 229.512422 152.776122 228.938672 154.756122 
Q 228.367734 156.733309 228.367734 158.763934 
Q 228.367734 160.791747 228.944297 162.782997 
Q 229.520859 164.774247 230.688047 166.787997 
L 229.281797 166.787997 
Q 227.965547 164.720809 227.310234 162.726747 
Q 226.654922 160.732684 226.654922 158.763934 
Q 226.654922 156.803622 227.304609 154.817997 
Q 227.957109 152.829559 229.281797 150.756747 
L 230.688047 150.756747 
z
M 234.073945 151.291122 
L 241.04332 151.291122 
L 241.04332 152.787372 
L 235.69957 152.787372 
L 235.69957 156.002059 
Q 236.084883 155.869872 236.470195 155.805184 
Q 236.85832 155.740497 237.246445 155.740497 
Q 239.443008 155.740497 240.725508 156.944247 
Q 242.01082 158.147997 242.01082 160.203934 
Q 242.01082 162.321747 240.691758 163.497372 
Q 239.372695 164.670184 236.973633 164.670184 
Q 236.146758 164.670184 235.288945 164.529559 
Q 234.433945 164.388934 233.519883 164.107684 
L 233.519883 162.321747 
Q 234.310195 162.752059 235.153945 162.962997 
Q 235.997695 163.173934 236.93707 163.173934 
Q 238.458633 163.173934 239.34457 162.375184 
Q 240.23332 161.576434 240.23332 160.203934 
Q 240.23332 158.834247 239.34457 158.035497 
Q 238.458633 157.233934 236.93707 157.233934 
Q 236.225508 157.233934 235.516758 157.391434 
Q 234.81082 157.548934 234.073945 157.883622 
L 234.073945 151.291122 
z
M 245.025469 150.756747 
L 246.431719 150.756747 
Q 247.747969 152.829559 248.403281 154.817997 
Q 249.058594 156.803622 249.058594 158.763934 
Q 249.058594 160.732684 248.403281 162.726747 
Q 247.747969 164.720809 246.431719 166.787997 
L 245.025469 166.787997 
Q 246.192656 164.774247 246.769219 162.782997 
Q 247.345781 160.791747 247.345781 158.763934 
Q 247.345781 156.733309 246.769219 154.756122 
Q 246.192656 152.776122 245.025469 150.756747 
z
" style="stroke: #ffffff; stroke-width: 4"/>
    <path d="M 196.551328 152.461122 
Q 195.181641 152.461122 194.489766 153.811122 
Q 193.800703 155.158309 193.800703 157.866747 
Q 193.800703 160.563934 194.489766 161.913934 
Q 195.181641 163.263934 196.551328 163.263934 
Q 197.932266 163.263934 198.621328 161.913934 
Q 199.313203 160.563934 199.313203 157.866747 
Q 199.313203 155.158309 198.621328 153.811122 
Q 197.932266 152.461122 196.551328 152.461122 
z
M 196.551328 151.054872 
Q 198.759141 151.054872 199.923516 152.801434 
Q 201.087891 154.545184 201.087891 157.866747 
Q 201.087891 161.179872 199.923516 162.926434 
Q 198.759141 164.670184 196.551328 164.670184 
Q 194.346328 164.670184 193.181953 162.926434 
Q 192.017578 161.179872 192.017578 157.866747 
Q 192.017578 154.545184 193.181953 152.801434 
Q 194.346328 151.054872 196.551328 151.054872 
z
M 215.369414 158.640184 
Q 214.604414 158.640184 214.168477 159.289872 
Q 213.735352 159.939559 213.735352 161.101122 
Q 213.735352 162.242997 214.168477 162.898309 
Q 214.604414 163.553622 215.369414 163.553622 
Q 216.117539 163.553622 216.550664 162.898309 
Q 216.986602 162.242997 216.986602 161.101122 
Q 216.986602 159.947997 216.550664 159.295497 
Q 216.117539 158.640184 215.369414 158.640184 
z
M 215.369414 157.523622 
Q 216.758789 157.523622 217.574414 158.491122 
Q 218.392852 159.455809 218.392852 161.101122 
Q 218.392852 162.743622 217.571602 163.708309 
Q 216.750352 164.670184 215.369414 164.670184 
Q 213.963164 164.670184 213.144727 163.708309 
Q 212.329102 162.743622 212.329102 161.101122 
Q 212.329102 159.447372 213.150352 158.485497 
Q 213.971602 157.523622 215.369414 157.523622 
z
M 206.299102 152.171434 
Q 205.542539 152.171434 205.106602 152.826747 
Q 204.673477 153.479247 204.673477 154.623934 
Q 204.673477 155.782684 205.103789 156.435184 
Q 205.534102 157.084872 206.299102 157.084872 
Q 207.064102 157.084872 207.497227 156.435184 
Q 207.933164 155.782684 207.933164 154.623934 
Q 207.933164 153.490497 207.494414 152.832372 
Q 207.055664 152.171434 206.299102 152.171434 
z
M 214.235977 151.054872 
L 215.642227 151.054872 
L 207.432539 164.670184 
L 206.026289 164.670184 
L 214.235977 151.054872 
z
M 206.299102 151.054872 
Q 207.688477 151.054872 208.512539 152.016747 
Q 209.339414 152.978622 209.339414 154.623934 
Q 209.339414 156.283309 208.518164 157.242372 
Q 207.696914 158.201434 206.299102 158.201434 
Q 204.901289 158.201434 204.088477 157.239559 
Q 203.275664 156.274872 203.275664 154.623934 
Q 203.275664 152.987059 204.091289 152.022372 
Q 204.909727 151.054872 206.299102 151.054872 
z
M 230.688047 150.756747 
Q 229.512422 152.776122 228.938672 154.756122 
Q 228.367734 156.733309 228.367734 158.763934 
Q 228.367734 160.791747 228.944297 162.782997 
Q 229.520859 164.774247 230.688047 166.787997 
L 229.281797 166.787997 
Q 227.965547 164.720809 227.310234 162.726747 
Q 226.654922 160.732684 226.654922 158.763934 
Q 226.654922 156.803622 227.304609 154.817997 
Q 227.957109 152.829559 229.281797 150.756747 
L 230.688047 150.756747 
z
M 234.073945 151.291122 
L 241.04332 151.291122 
L 241.04332 152.787372 
L 235.69957 152.787372 
L 235.69957 156.002059 
Q 236.084883 155.869872 236.470195 155.805184 
Q 236.85832 155.740497 237.246445 155.740497 
Q 239.443008 155.740497 240.725508 156.944247 
Q 242.01082 158.147997 242.01082 160.203934 
Q 242.01082 162.321747 240.691758 163.497372 
Q 239.372695 164.670184 236.973633 164.670184 
Q 236.146758 164.670184 235.288945 164.529559 
Q 234.433945 164.388934 233.519883 164.107684 
L 233.519883 162.321747 
Q 234.310195 162.752059 235.153945 162.962997 
Q 235.997695 163.173934 236.93707 163.173934 
Q 238.458633 163.173934 239.34457 162.375184 
Q 240.23332 161.576434 240.23332 160.203934 
Q 240.23332 158.834247 239.34457 158.035497 
Q 238.458633 157.233934 236.93707 157.233934 
Q 236.225508 157.233934 235.516758 157.391434 
Q 234.81082 157.548934 234.073945 157.883622 
L 234.073945 151.291122 
z
M 245.025469 150.756747 
L 246.431719 150.756747 
Q 247.747969 152.829559 248.403281 154.817997 
Q 249.058594 156.803622 249.058594 158.763934 
Q 249.058594 160.732684 248.403281 162.726747 
Q 247.747969 164.720809 246.431719 166.787997 
L 245.025469 166.787997 
Q 246.192656 164.774247 246.769219 162.782997 
Q 247.345781 160.791747 247.345781 158.763934 
Q 247.345781 156.733309 246.769219 154.756122 
Q 246.192656 152.776122 245.025469 150.756747 
z
"/>
   </g>
   <g id="text_3">
    <!-- Contract -->
    <g transform="translate(47.334939 153.278046) scale(0.18 -0.18)">
     <defs>
      <path id="DejaVuSans-6f" d="M 1959 3097 
Q 1497 3097 1228 2736 
Q 959 2375 959 1747 
Q 959 1119 1226 758 
Q 1494 397 1959 397 
Q 2419 397 2687 759 
Q 2956 1122 2956 1747 
Q 2956 2369 2687 2733 
Q 2419 3097 1959 3097 
z
M 1959 3584 
Q 2709 3584 3137 3096 
Q 3566 2609 3566 1747 
Q 3566 888 3137 398 
Q 2709 -91 1959 -91 
Q 1206 -91 779 398 
Q 353 888 353 1747 
Q 353 2609 779 3096 
Q 1206 3584 1959 3584 
z
" transform="scale(0.015625)"/>
      <path id="DejaVuSans-6e" d="M 3513 2113 
L 3513 0 
L 2938 0 
L 2938 2094 
Q 2938 2591 2744 2837 
Q 2550 3084 2163 3084 
Q 1697 3084 1428 2787 
Q 1159 2491 1159 1978 
L 1159 0 
L 581 0 
L 581 3500 
L 1159 3500 
L 1159 2956 
Q 1366 3272 1645 3428 
Q 1925 3584 2291 3584 
Q 2894 3584 3203 3211 
Q 3513 2838 3513 2113 
z
" transform="scale(0.015625)"/>
      <path id="DejaVuSans-74" d="M 1172 4494 
L 1172 3500 
L 2356 3500 
L 2356 3053 
L 1172 3053 
L 1172 1153 
Q 1172 725 1289 603 
Q 1406 481 1766 481 
L 2356 481 
L 2356 0 
L 1766 0 
Q 1100 0 847 248 
Q 594 497 594 1153 
L 594 3053 
L 172 3053 
L 172 3500 
L 594 3500 
L 594 4494 
L 1172 4494 
z
" transform="scale(0.015625)"/>
      <path id="DejaVuSans-72" d="M 2631 2963 
Q 2534 3019 2420 3045 
Q 2306 3072 2169 3072 
Q 1681 3072 1420 2755 
Q 1159 2438 1159 1844 
L 1159 0 
L 581 0 
L 581 3500 
L 1159 3500 
L 1159 2956 
Q 1341 3275 1631 3429 
Q 1922 3584 2338 3584 
Q 2397 3584 2469 3576 
Q 2541 3569 2628 3553 
L 2631 2963 
z
" transform="scale(0.015625)"/>
      <path id="DejaVuSans-61" d="M 2194 1759 
Q 1497 1759 1228 1600 
Q 959 1441 959 1056 
Q 959 750 1161 570 
Q 1363 391 1709 391 
Q 2188 391 2477 730 
Q 2766 1069 2766 1631 
L 2766 1759 
L 2194 1759 
z
M 3341 1997 
L 3341 0 
L 2766 0 
L 2766 531 
Q 2569 213 2275 61 
Q 1981 -91 1556 -91 
Q 1019 -91 701 211 
Q 384 513 384 1019 
Q 384 1609 779 1909 
Q 1175 2209 1959 2209 
L 2766 2209 
L 2766 2266 
Q 2766 2663 2505 2880 
Q 2244 3097 1772 3097 
Q 1472 3097 1187 3025 
Q 903 2953 641 2809 
L 641 3341 
Q 956 3463 1253 3523 
Q 1550 3584 1831 3584 
Q 2591 3584 2966 3190 
Q 3341 2797 3341 1997 
z
" transform="scale(0.015625)"/>
      <path id="DejaVuSans-63" d="M 3122 3366 
L 3122 2828 
Q 2878 2963 2633 3030 
Q 2388 3097 2138 3097 
Q 1578 3097 1268 2742 
Q 959 2388 959 1747 
Q 959 1106 1268 751 
Q 1578 397 2138 397 
Q 2388 397 2633 464 
Q 2878 531 3122 666 
L 3122 134 
Q 2881 22 2623 -34 
Q 2366 -91 2075 -91 
Q 1284 -91 818 406 
Q 353 903 353 1747 
Q 353 2603 823 3093 
Q 1294 3584 2113 3584 
Q 2378 3584 2631 3529 
Q 2884 3475 3122 3366 
z
" transform="scale(0.015625)"/>
     </defs>
     <use xlink:href="#DejaVuSans-43"/>
     <use xlink:href="#DejaVuSans-6f" x="69.824219"/>
     <use xlink:href="#DejaVuSans-6e" x="131.005859"/>
     <use xlink:href="#DejaVuSans-74" x="194.384766"/>
     <use xlink:href="#DejaVuSans-72" x="233.59375"/>
     <use xlink:href="#DejaVuSans-61" x="274.707031"/>
     <use xlink:href="#DejaVuSans-63" x="335.986328"/>
     <use xlink:href="#DejaVuSans-74" x="390.966797"/>
    </g>
   </g>
   <g id="text_4">
    <path d="M 169.904476 182.776826 
Q 168.638851 182.776826 167.913226 183.454639 
Q 167.190414 184.132451 167.190414 185.316514 
Q 167.190414 186.503389 167.913226 187.181201 
Q 168.638851 187.859014 169.904476 187.859014 
Q 171.170101 187.859014 171.898539 187.178389 
Q 172.629789 186.494951 172.629789 185.316514 
Q 172.629789 184.132451 171.904164 183.454639 
Q 171.181351 182.776826 169.904476 182.776826 
z
M 168.129789 182.023076 
Q 166.987914 181.741826 166.349476 180.959951 
Q 165.713851 180.175264 165.713851 179.050264 
Q 165.713851 177.478076 166.833226 176.564014 
Q 167.955414 175.649951 169.904476 175.649951 
Q 171.864789 175.649951 172.981351 176.564014 
Q 174.097914 177.478076 174.097914 179.050264 
Q 174.097914 180.175264 173.459476 180.959951 
Q 172.823851 181.741826 171.690414 182.023076 
Q 172.972914 182.321201 173.687289 183.193076 
Q 174.404476 184.062139 174.404476 185.316514 
Q 174.404476 187.226201 173.240101 188.247139 
Q 172.075726 189.265264 169.904476 189.265264 
Q 167.736039 189.265264 166.568851 188.247139 
Q 165.404476 187.226201 165.404476 185.316514 
Q 165.404476 184.062139 166.124476 183.193076 
Q 166.847289 182.321201 168.129789 182.023076 
z
M 167.480101 179.219014 
Q 167.480101 180.237139 168.115726 180.808076 
Q 168.754164 181.379014 169.904476 181.379014 
Q 171.049164 181.379014 171.693226 180.808076 
Q 172.340101 180.237139 172.340101 179.219014 
Q 172.340101 178.198076 171.693226 177.627139 
Q 171.049164 177.056201 169.904476 177.056201 
Q 168.754164 177.056201 168.115726 177.627139 
Q 167.480101 178.198076 167.480101 179.219014 
z
M 188.722562 183.235264 
Q 187.957562 183.235264 187.521625 183.884951 
Q 187.0885 184.534639 187.0885 185.696201 
Q 187.0885 186.838076 187.521625 187.493389 
Q 187.957562 188.148701 188.722562 188.148701 
Q 189.470687 188.148701 189.903812 187.493389 
Q 190.33975 186.838076 190.33975 185.696201 
Q 190.33975 184.543076 189.903812 183.890576 
Q 189.470687 183.235264 188.722562 183.235264 
z
M 188.722562 182.118701 
Q 190.111937 182.118701 190.927562 183.086201 
Q 191.746 184.050889 191.746 185.696201 
Q 191.746 187.338701 190.92475 188.303389 
Q 190.1035 189.265264 188.722562 189.265264 
Q 187.316312 189.265264 186.497875 188.303389 
Q 185.68225 187.338701 185.68225 185.696201 
Q 185.68225 184.042451 186.5035 183.080576 
Q 187.32475 182.118701 188.722562 182.118701 
z
M 179.65225 176.766514 
Q 178.895687 176.766514 178.45975 177.421826 
Q 178.026625 178.074326 178.026625 179.219014 
Q 178.026625 180.377764 178.456937 181.030264 
Q 178.88725 181.679951 179.65225 181.679951 
Q 180.41725 181.679951 180.850375 181.030264 
Q 181.286312 180.377764 181.286312 179.219014 
Q 181.286312 178.085576 180.847562 177.427451 
Q 180.408812 176.766514 179.65225 176.766514 
z
M 187.589125 175.649951 
L 188.995375 175.649951 
L 180.785687 189.265264 
L 179.379437 189.265264 
L 187.589125 175.649951 
z
M 179.65225 175.649951 
Q 181.041625 175.649951 181.865687 176.611826 
Q 182.692562 177.573701 182.692562 179.219014 
Q 182.692562 180.878389 181.871312 181.837451 
Q 181.050062 182.796514 179.65225 182.796514 
Q 178.254437 182.796514 177.441625 181.834639 
Q 176.628812 180.869951 176.628812 179.219014 
Q 176.628812 177.582139 177.444437 176.617451 
Q 178.262875 175.649951 179.65225 175.649951 
z
M 204.041195 175.351826 
Q 202.86557 177.371201 202.29182 179.351201 
Q 201.720883 181.328389 201.720883 183.359014 
Q 201.720883 185.386826 202.297445 187.378076 
Q 202.874008 189.369326 204.041195 191.383076 
L 202.634945 191.383076 
Q 201.318695 189.315889 200.663383 187.321826 
Q 200.00807 185.327764 200.00807 183.359014 
Q 200.00807 181.398701 200.657758 179.413076 
Q 201.310258 177.424639 202.634945 175.351826 
L 204.041195 175.351826 
z
M 207.716781 187.515889 
L 210.616469 187.515889 
L 210.616469 177.503389 
L 207.460844 178.136201 
L 207.460844 176.519014 
L 210.599594 175.886201 
L 212.374281 175.886201 
L 212.374281 187.515889 
L 215.273969 187.515889 
L 215.273969 189.009326 
L 207.716781 189.009326 
L 207.716781 187.515889 
z
M 222.878617 181.741826 
Q 221.683305 181.741826 220.982992 182.560264 
Q 220.285492 183.375889 220.285492 184.799014 
Q 220.285492 186.213701 220.982992 187.037764 
Q 221.683305 187.859014 222.878617 187.859014 
Q 224.07393 187.859014 224.77143 187.037764 
Q 225.46893 186.213701 225.46893 184.799014 
Q 225.46893 183.375889 224.77143 182.560264 
Q 224.07393 181.741826 222.878617 181.741826 
z
M 226.40268 176.175889 
L 226.40268 177.793076 
Q 225.733305 177.478076 225.05268 177.312139 
Q 224.372055 177.143389 223.70268 177.143389 
Q 221.944867 177.143389 221.016742 178.330264 
Q 220.09143 179.517139 219.959242 181.916201 
Q 220.476742 181.151201 221.258617 180.743389 
Q 222.043305 180.335576 222.98268 180.335576 
Q 224.959867 180.335576 226.107367 181.536514 
Q 227.254867 182.734639 227.254867 184.799014 
Q 227.254867 186.821201 226.059555 188.044639 
Q 224.864242 189.265264 222.878617 189.265264 
Q 220.600492 189.265264 219.396742 187.521514 
Q 218.192992 185.774951 218.192992 182.461826 
Q 218.192992 179.351201 219.669555 177.500576 
Q 221.146117 175.649951 223.632367 175.649951 
Q 224.301742 175.649951 224.982367 175.782139 
Q 225.662992 175.914326 226.40268 176.175889 
z
M 234.108578 182.776826 
Q 232.842953 182.776826 232.117328 183.454639 
Q 231.394515 184.132451 231.394515 185.316514 
Q 231.394515 186.503389 232.117328 187.181201 
Q 232.842953 187.859014 234.108578 187.859014 
Q 235.374203 187.859014 236.10264 187.178389 
Q 236.83389 186.494951 236.83389 185.316514 
Q 236.83389 184.132451 236.108265 183.454639 
Q 235.385453 182.776826 234.108578 182.776826 
z
M 232.33389 182.023076 
Q 231.192015 181.741826 230.553578 180.959951 
Q 229.917953 180.175264 229.917953 179.050264 
Q 229.917953 177.478076 231.037328 176.564014 
Q 232.159515 175.649951 234.108578 175.649951 
Q 236.06889 175.649951 237.185453 176.564014 
Q 238.302015 177.478076 238.302015 179.050264 
Q 238.302015 180.175264 237.663578 180.959951 
Q 237.027953 181.741826 235.894515 182.023076 
Q 237.177015 182.321201 237.89139 183.193076 
Q 238.608578 184.062139 238.608578 185.316514 
Q 238.608578 187.226201 237.444203 188.247139 
Q 236.279828 189.265264 234.108578 189.265264 
Q 231.94014 189.265264 230.772953 188.247139 
Q 229.608578 187.226201 229.608578 185.316514 
Q 229.608578 184.062139 230.328578 183.193076 
Q 231.05139 182.321201 232.33389 182.023076 
z
M 231.684203 179.219014 
Q 231.684203 180.237139 232.319828 180.808076 
Q 232.958265 181.379014 234.108578 181.379014 
Q 235.253265 181.379014 235.897328 180.808076 
Q 236.544203 180.237139 236.544203 179.219014 
Q 236.544203 178.198076 235.897328 177.627139 
Q 235.253265 177.056201 234.108578 177.056201 
Q 232.958265 177.056201 232.319828 177.627139 
Q 231.684203 178.198076 231.684203 179.219014 
z
M 241.282914 175.351826 
L 242.689164 175.351826 
Q 244.005414 177.424639 244.660726 179.413076 
Q 245.316039 181.398701 245.316039 183.359014 
Q 245.316039 185.327764 244.660726 187.321826 
Q 244.005414 189.315889 242.689164 191.383076 
L 241.282914 191.383076 
Q 242.450101 189.369326 243.026664 187.378076 
Q 243.603226 185.386826 243.603226 183.359014 
Q 243.603226 181.328389 243.026664 179.351201 
Q 242.450101 177.371201 241.282914 175.351826 
z
" style="stroke: #ffffff; stroke-width: 4"/>
    <path d="M 169.904476 182.776826 
Q 168.638851 182.776826 167.913226 183.454639 
Q 167.190414 184.132451 167.190414 185.316514 
Q 167.190414 186.503389 167.913226 187.181201 
Q 168.638851 187.859014 169.904476 187.859014 
Q 171.170101 187.859014 171.898539 187.178389 
Q 172.629789 186.494951 172.629789 185.316514 
Q 172.629789 184.132451 171.904164 183.454639 
Q 171.181351 182.776826 169.904476 182.776826 
z
M 168.129789 182.023076 
Q 166.987914 181.741826 166.349476 180.959951 
Q 165.713851 180.175264 165.713851 179.050264 
Q 165.713851 177.478076 166.833226 176.564014 
Q 167.955414 175.649951 169.904476 175.649951 
Q 171.864789 175.649951 172.981351 176.564014 
Q 174.097914 177.478076 174.097914 179.050264 
Q 174.097914 180.175264 173.459476 180.959951 
Q 172.823851 181.741826 171.690414 182.023076 
Q 172.972914 182.321201 173.687289 183.193076 
Q 174.404476 184.062139 174.404476 185.316514 
Q 174.404476 187.226201 173.240101 188.247139 
Q 172.075726 189.265264 169.904476 189.265264 
Q 167.736039 189.265264 166.568851 188.247139 
Q 165.404476 187.226201 165.404476 185.316514 
Q 165.404476 184.062139 166.124476 183.193076 
Q 166.847289 182.321201 168.129789 182.023076 
z
M 167.480101 179.219014 
Q 167.480101 180.237139 168.115726 180.808076 
Q 168.754164 181.379014 169.904476 181.379014 
Q 171.049164 181.379014 171.693226 180.808076 
Q 172.340101 180.237139 172.340101 179.219014 
Q 172.340101 178.198076 171.693226 177.627139 
Q 171.049164 177.056201 169.904476 177.056201 
Q 168.754164 177.056201 168.115726 177.627139 
Q 167.480101 178.198076 167.480101 179.219014 
z
M 188.722562 183.235264 
Q 187.957562 183.235264 187.521625 183.884951 
Q 187.0885 184.534639 187.0885 185.696201 
Q 187.0885 186.838076 187.521625 187.493389 
Q 187.957562 188.148701 188.722562 188.148701 
Q 189.470687 188.148701 189.903812 187.493389 
Q 190.33975 186.838076 190.33975 185.696201 
Q 190.33975 184.543076 189.903812 183.890576 
Q 189.470687 183.235264 188.722562 183.235264 
z
M 188.722562 182.118701 
Q 190.111937 182.118701 190.927562 183.086201 
Q 191.746 184.050889 191.746 185.696201 
Q 191.746 187.338701 190.92475 188.303389 
Q 190.1035 189.265264 188.722562 189.265264 
Q 187.316312 189.265264 186.497875 188.303389 
Q 185.68225 187.338701 185.68225 185.696201 
Q 185.68225 184.042451 186.5035 183.080576 
Q 187.32475 182.118701 188.722562 182.118701 
z
M 179.65225 176.766514 
Q 178.895687 176.766514 178.45975 177.421826 
Q 178.026625 178.074326 178.026625 179.219014 
Q 178.026625 180.377764 178.456937 181.030264 
Q 178.88725 181.679951 179.65225 181.679951 
Q 180.41725 181.679951 180.850375 181.030264 
Q 181.286312 180.377764 181.286312 179.219014 
Q 181.286312 178.085576 180.847562 177.427451 
Q 180.408812 176.766514 179.65225 176.766514 
z
M 187.589125 175.649951 
L 188.995375 175.649951 
L 180.785687 189.265264 
L 179.379437 189.265264 
L 187.589125 175.649951 
z
M 179.65225 175.649951 
Q 181.041625 175.649951 181.865687 176.611826 
Q 182.692562 177.573701 182.692562 179.219014 
Q 182.692562 180.878389 181.871312 181.837451 
Q 181.050062 182.796514 179.65225 182.796514 
Q 178.254437 182.796514 177.441625 181.834639 
Q 176.628812 180.869951 176.628812 179.219014 
Q 176.628812 177.582139 177.444437 176.617451 
Q 178.262875 175.649951 179.65225 175.649951 
z
M 204.041195 175.351826 
Q 202.86557 177.371201 202.29182 179.351201 
Q 201.720883 181.328389 201.720883 183.359014 
Q 201.720883 185.386826 202.297445 187.378076 
Q 202.874008 189.369326 204.041195 191.383076 
L 202.634945 191.383076 
Q 201.318695 189.315889 200.663383 187.321826 
Q 200.00807 185.327764 200.00807 183.359014 
Q 200.00807 181.398701 200.657758 179.413076 
Q 201.310258 177.424639 202.634945 175.351826 
L 204.041195 175.351826 
z
M 207.716781 187.515889 
L 210.616469 187.515889 
L 210.616469 177.503389 
L 207.460844 178.136201 
L 207.460844 176.519014 
L 210.599594 175.886201 
L 212.374281 175.886201 
L 212.374281 187.515889 
L 215.273969 187.515889 
L 215.273969 189.009326 
L 207.716781 189.009326 
L 207.716781 187.515889 
z
M 222.878617 181.741826 
Q 221.683305 181.741826 220.982992 182.560264 
Q 220.285492 183.375889 220.285492 184.799014 
Q 220.285492 186.213701 220.982992 187.037764 
Q 221.683305 187.859014 222.878617 187.859014 
Q 224.07393 187.859014 224.77143 187.037764 
Q 225.46893 186.213701 225.46893 184.799014 
Q 225.46893 183.375889 224.77143 182.560264 
Q 224.07393 181.741826 222.878617 181.741826 
z
M 226.40268 176.175889 
L 226.40268 177.793076 
Q 225.733305 177.478076 225.05268 177.312139 
Q 224.372055 177.143389 223.70268 177.143389 
Q 221.944867 177.143389 221.016742 178.330264 
Q 220.09143 179.517139 219.959242 181.916201 
Q 220.476742 181.151201 221.258617 180.743389 
Q 222.043305 180.335576 222.98268 180.335576 
Q 224.959867 180.335576 226.107367 181.536514 
Q 227.254867 182.734639 227.254867 184.799014 
Q 227.254867 186.821201 226.059555 188.044639 
Q 224.864242 189.265264 222.878617 189.265264 
Q 220.600492 189.265264 219.396742 187.521514 
Q 218.192992 185.774951 218.192992 182.461826 
Q 218.192992 179.351201 219.669555 177.500576 
Q 221.146117 175.649951 223.632367 175.649951 
Q 224.301742 175.649951 224.982367 175.782139 
Q 225.662992 175.914326 226.40268 176.175889 
z
M 234.108578 182.776826 
Q 232.842953 182.776826 232.117328 183.454639 
Q 231.394515 184.132451 231.394515 185.316514 
Q 231.394515 186.503389 232.117328 187.181201 
Q 232.842953 187.859014 234.108578 187.859014 
Q 235.374203 187.859014 236.10264 187.178389 
Q 236.83389 186.494951 236.83389 185.316514 
Q 236.83389 184.132451 236.108265 183.454639 
Q 235.385453 182.776826 234.108578 182.776826 
z
M 232.33389 182.023076 
Q 231.192015 181.741826 230.553578 180.959951 
Q 229.917953 180.175264 229.917953 179.050264 
Q 229.917953 177.478076 231.037328 176.564014 
Q 232.159515 175.649951 234.108578 175.649951 
Q 236.06889 175.649951 237.185453 176.564014 
Q 238.302015 177.478076 238.302015 179.050264 
Q 238.302015 180.175264 237.663578 180.959951 
Q 237.027953 181.741826 235.894515 182.023076 
Q 237.177015 182.321201 237.89139 183.193076 
Q 238.608578 184.062139 238.608578 185.316514 
Q 238.608578 187.226201 237.444203 188.247139 
Q 236.279828 189.265264 234.108578 189.265264 
Q 231.94014 189.265264 230.772953 188.247139 
Q 229.608578 187.226201 229.608578 185.316514 
Q 229.608578 184.062139 230.328578 183.193076 
Q 231.05139 182.321201 232.33389 182.023076 
z
M 231.684203 179.219014 
Q 231.684203 180.237139 232.319828 180.808076 
Q 232.958265 181.379014 234.108578 181.379014 
Q 235.253265 181.379014 235.897328 180.808076 
Q 236.544203 180.237139 236.544203 179.219014 
Q 236.544203 178.198076 235.897328 177.627139 
Q 235.253265 177.056201 234.108578 177.056201 
Q 232.958265 177.056201 232.319828 177.627139 
Q 231.684203 178.198076 231.684203 179.219014 
z
M 241.282914 175.351826 
L 242.689164 175.351826 
Q 244.005414 177.424639 244.660726 179.413076 
Q 245.316039 181.398701 245.316039 183.359014 
Q 245.316039 185.327764 244.660726 187.321826 
Q 244.005414 189.315889 242.689164 191.383076 
L 241.282914 191.383076 
Q 242.450101 189.369326 243.026664 187.378076 
Q 243.603226 185.386826 243.603226 183.359014 
Q 243.603226 181.328389 243.026664 179.351201 
Q 242.450101 177.371201 241.282914 175.351826 
z
"/>
   </g>
   <g id="text_5">
    <!-- Custody -->
    <g transform="translate(36.456583 205.436827) scale(0.18 -0.18)">
     <defs>
      <path id="DejaVuSans-75" d="M 544 1381 
L 544 3500 
L 1119 3500 
L 1119 1403 
Q 1119 906 1312 657 
Q 1506 409 1894 409 
Q 2359 409 2629 706 
Q 2900 1003 2900 1516 
L 2900 3500 
L 3475 3500 
L 3475 0 
L 2900 0 
L 2900 538 
Q 2691 219 2414 64 
Q 2138 -91 1772 -91 
Q 1169 -91 856 284 
Q 544 659 544 1381 
z
M 1991 3584 
L 1991 3584 
z
" transform="scale(0.015625)"/>
      <path id="DejaVuSans-73" d="M 2834 3397 
L 2834 2853 
Q 2591 2978 2328 3040 
Q 2066 3103 1784 3103 
Q 1356 3103 1142 2972 
Q 928 2841 928 2578 
Q 928 2378 1081 2264 
Q 1234 2150 1697 2047 
L 1894 2003 
Q 2506 1872 2764 1633 
Q 3022 1394 3022 966 
Q 3022 478 2636 193 
Q 2250 -91 1575 -91 
Q 1294 -91 989 -36 
Q 684 19 347 128 
L 347 722 
Q 666 556 975 473 
Q 1284 391 1588 391 
Q 1994 391 2212 530 
Q 2431 669 2431 922 
Q 2431 1156 2273 1281 
Q 2116 1406 1581 1522 
L 1381 1569 
Q 847 1681 609 1914 
Q 372 2147 372 2553 
Q 372 3047 722 3315 
Q 1072 3584 1716 3584 
Q 2034 3584 2315 3537 
Q 2597 3491 2834 3397 
z
" transform="scale(0.015625)"/>
      <path id="DejaVuSans-64" d="M 2906 2969 
L 2906 4863 
L 3481 4863 
L 3481 0 
L 2906 0 
L 2906 525 
Q 2725 213 2448 61 
Q 2172 -91 1784 -91 
Q 1150 -91 751 415 
Q 353 922 353 1747 
Q 353 2572 751 3078 
Q 1150 3584 1784 3584 
Q 2172 3584 2448 3432 
Q 2725 3281 2906 2969 
z
M 947 1747 
Q 947 1113 1208 752 
Q 1469 391 1925 391 
Q 2381 391 2643 752 
Q 2906 1113 2906 1747 
Q 2906 2381 2643 2742 
Q 2381 3103 1925 3103 
Q 1469 3103 1208 2742 
Q 947 2381 947 1747 
z
" transform="scale(0.015625)"/>
      <path id="DejaVuSans-79" d="M 2059 -325 
Q 1816 -950 1584 -1140 
Q 1353 -1331 966 -1331 
L 506 -1331 
L 506 -850 
L 844 -850 
Q 1081 -850 1212 -737 
Q 1344 -625 1503 -206 
L 1606 56 
L 191 3500 
L 800 3500 
L 1894 763 
L 2988 3500 
L 3597 3500 
L 2059 -325 
z
" transform="scale(0.015625)"/>
     </defs>
     <use xlink:href="#DejaVuSans-43"/>
     <use xlink:href="#DejaVuSans-75" x="69.824219"/>
     <use xlink:href="#DejaVuSans-73" x="133.203125"/>
     <use xlink:href="#DejaVuSans-74" x="185.302734"/>
     <use xlink:href="#DejaVuSans-6f" x="224.511719"/>
     <use xlink:href="#DejaVuSans-64" x="285.693359"/>
     <use xlink:href="#DejaVuSans-79" x="349.169922"/>
    </g>
   </g>
   <g id="text_6">
    <path d="M 173.281737 205.506445 
Q 171.912049 205.506445 171.220174 206.856445 
Q 170.531112 208.203633 170.531112 210.91207 
Q 170.531112 213.609258 171.220174 214.959258 
Q 171.912049 216.309258 173.281737 216.309258 
Q 174.662674 216.309258 175.351737 214.959258 
Q 176.043612 213.609258 176.043612 210.91207 
Q 176.043612 208.203633 175.351737 206.856445 
Q 174.662674 205.506445 173.281737 205.506445 
z
M 173.281737 204.100195 
Q 175.489549 204.100195 176.653924 205.846758 
Q 177.818299 207.590508 177.818299 210.91207 
Q 177.818299 214.225195 176.653924 215.971758 
Q 175.489549 217.715508 173.281737 217.715508 
Q 171.076737 217.715508 169.912362 215.971758 
Q 168.747987 214.225195 168.747987 210.91207 
Q 168.747987 207.590508 169.912362 205.846758 
Q 171.076737 204.100195 173.281737 204.100195 
z
M 192.099823 211.685508 
Q 191.334823 211.685508 190.898885 212.335195 
Q 190.46576 212.984883 190.46576 214.146445 
Q 190.46576 215.28832 190.898885 215.943633 
Q 191.334823 216.598945 192.099823 216.598945 
Q 192.847948 216.598945 193.281073 215.943633 
Q 193.71701 215.28832 193.71701 214.146445 
Q 193.71701 212.99332 193.281073 212.34082 
Q 192.847948 211.685508 192.099823 211.685508 
z
M 192.099823 210.568945 
Q 193.489198 210.568945 194.304823 211.536445 
Q 195.12326 212.501133 195.12326 214.146445 
Q 195.12326 215.788945 194.30201 216.753633 
Q 193.48076 217.715508 192.099823 217.715508 
Q 190.693573 217.715508 189.875135 216.753633 
Q 189.05951 215.788945 189.05951 214.146445 
Q 189.05951 212.492695 189.88076 211.53082 
Q 190.70201 210.568945 192.099823 210.568945 
z
M 183.02951 205.216758 
Q 182.272948 205.216758 181.83701 205.87207 
Q 181.403885 206.52457 181.403885 207.669258 
Q 181.403885 208.828008 181.834198 209.480508 
Q 182.26451 210.130195 183.02951 210.130195 
Q 183.79451 210.130195 184.227635 209.480508 
Q 184.663573 208.828008 184.663573 207.669258 
Q 184.663573 206.53582 184.224823 205.877695 
Q 183.786073 205.216758 183.02951 205.216758 
z
M 190.966385 204.100195 
L 192.372635 204.100195 
L 184.162948 217.715508 
L 182.756698 217.715508 
L 190.966385 204.100195 
z
M 183.02951 204.100195 
Q 184.418885 204.100195 185.242948 205.06207 
Q 186.069823 206.023945 186.069823 207.669258 
Q 186.069823 209.328633 185.248573 210.287695 
Q 184.427323 211.246758 183.02951 211.246758 
Q 181.631698 211.246758 180.818885 210.284883 
Q 180.006073 209.320195 180.006073 207.669258 
Q 180.006073 206.032383 180.821698 205.067695 
Q 181.640135 204.100195 183.02951 204.100195 
z
M 207.418456 203.80207 
Q 206.242831 205.821445 205.669081 207.801445 
Q 205.098143 209.778633 205.098143 211.809258 
Q 205.098143 213.83707 205.674706 215.82832 
Q 206.251268 217.81957 207.418456 219.83332 
L 206.012206 219.83332 
Q 204.695956 217.766133 204.040643 215.77207 
Q 203.385331 213.778008 203.385331 211.809258 
Q 203.385331 209.848945 204.035018 207.86332 
Q 204.687518 205.874883 206.012206 203.80207 
L 207.418456 203.80207 
z
M 210.838104 217.186758 
L 210.838104 215.56957 
Q 211.507479 215.887383 212.190917 216.05332 
Q 212.877167 216.219258 213.538104 216.219258 
Q 215.295917 216.219258 216.221229 215.038008 
Q 217.149354 213.856758 217.281542 211.446445 
Q 216.772479 212.203008 215.987792 212.608008 
Q 215.205917 213.013008 214.258104 213.013008 
Q 212.289354 213.013008 211.141854 211.82332 
Q 209.994354 210.63082 209.994354 208.563633 
Q 209.994354 206.544258 211.189667 205.323633 
Q 212.384979 204.100195 214.370604 204.100195 
Q 216.648729 204.100195 217.846854 205.846758 
Q 219.047792 207.590508 219.047792 210.91207 
Q 219.047792 214.014258 217.574042 215.864883 
Q 216.103104 217.715508 213.616854 217.715508 
Q 212.947479 217.715508 212.261229 217.58332 
Q 211.577792 217.451133 210.838104 217.186758 
z
M 214.370604 211.623633 
Q 215.565917 211.623633 216.263417 210.808008 
Q 216.963729 209.98957 216.963729 208.563633 
Q 216.963729 207.148945 216.263417 206.327695 
Q 215.565917 205.506445 214.370604 205.506445 
Q 213.175292 205.506445 212.477792 206.327695 
Q 211.780292 207.148945 211.780292 208.563633 
Q 211.780292 209.98957 212.477792 210.808008 
Q 213.175292 211.623633 214.370604 211.623633 
z
M 221.755878 203.80207 
L 223.162128 203.80207 
Q 224.478378 205.874883 225.13369 207.86332 
Q 225.789003 209.848945 225.789003 211.809258 
Q 225.789003 213.778008 225.13369 215.77207 
Q 224.478378 217.766133 223.162128 219.83332 
L 221.755878 219.83332 
Q 222.923065 217.81957 223.499628 215.82832 
Q 224.07619 213.83707 224.07619 211.809258 
Q 224.07619 209.778633 223.499628 207.801445 
Q 222.923065 205.821445 221.755878 203.80207 
z
" style="stroke: #ffffff; stroke-width: 4"/>
    <path d="M 173.281737 205.506445 
Q 171.912049 205.506445 171.220174 206.856445 
Q 170.531112 208.203633 170.531112 210.91207 
Q 170.531112 213.609258 171.220174 214.959258 
Q 171.912049 216.309258 173.281737 216.309258 
Q 174.662674 216.309258 175.351737 214.959258 
Q 176.043612 213.609258 176.043612 210.91207 
Q 176.043612 208.203633 175.351737 206.856445 
Q 174.662674 205.506445 173.281737 205.506445 
z
M 173.281737 204.100195 
Q 175.489549 204.100195 176.653924 205.846758 
Q 177.818299 207.590508 177.818299 210.91207 
Q 177.818299 214.225195 176.653924 215.971758 
Q 175.489549 217.715508 173.281737 217.715508 
Q 171.076737 217.715508 169.912362 215.971758 
Q 168.747987 214.225195 168.747987 210.91207 
Q 168.747987 207.590508 169.912362 205.846758 
Q 171.076737 204.100195 173.281737 204.100195 
z
M 192.099823 211.685508 
Q 191.334823 211.685508 190.898885 212.335195 
Q 190.46576 212.984883 190.46576 214.146445 
Q 190.46576 215.28832 190.898885 215.943633 
Q 191.334823 216.598945 192.099823 216.598945 
Q 192.847948 216.598945 193.281073 215.943633 
Q 193.71701 215.28832 193.71701 214.146445 
Q 193.71701 212.99332 193.281073 212.34082 
Q 192.847948 211.685508 192.099823 211.685508 
z
M 192.099823 210.568945 
Q 193.489198 210.568945 194.304823 211.536445 
Q 195.12326 212.501133 195.12326 214.146445 
Q 195.12326 215.788945 194.30201 216.753633 
Q 193.48076 217.715508 192.099823 217.715508 
Q 190.693573 217.715508 189.875135 216.753633 
Q 189.05951 215.788945 189.05951 214.146445 
Q 189.05951 212.492695 189.88076 211.53082 
Q 190.70201 210.568945 192.099823 210.568945 
z
M 183.02951 205.216758 
Q 182.272948 205.216758 181.83701 205.87207 
Q 181.403885 206.52457 181.403885 207.669258 
Q 181.403885 208.828008 181.834198 209.480508 
Q 182.26451 210.130195 183.02951 210.130195 
Q 183.79451 210.130195 184.227635 209.480508 
Q 184.663573 208.828008 184.663573 207.669258 
Q 184.663573 206.53582 184.224823 205.877695 
Q 183.786073 205.216758 183.02951 205.216758 
z
M 190.966385 204.100195 
L 192.372635 204.100195 
L 184.162948 217.715508 
L 182.756698 217.715508 
L 190.966385 204.100195 
z
M 183.02951 204.100195 
Q 184.418885 204.100195 185.242948 205.06207 
Q 186.069823 206.023945 186.069823 207.669258 
Q 186.069823 209.328633 185.248573 210.287695 
Q 184.427323 211.246758 183.02951 211.246758 
Q 181.631698 211.246758 180.818885 210.284883 
Q 180.006073 209.320195 180.006073 207.669258 
Q 180.006073 206.032383 180.821698 205.067695 
Q 181.640135 204.100195 183.02951 204.100195 
z
M 207.418456 203.80207 
Q 206.242831 205.821445 205.669081 207.801445 
Q 205.098143 209.778633 205.098143 211.809258 
Q 205.098143 213.83707 205.674706 215.82832 
Q 206.251268 217.81957 207.418456 219.83332 
L 206.012206 219.83332 
Q 204.695956 217.766133 204.040643 215.77207 
Q 203.385331 213.778008 203.385331 211.809258 
Q 203.385331 209.848945 204.035018 207.86332 
Q 204.687518 205.874883 206.012206 203.80207 
L 207.418456 203.80207 
z
M 210.838104 217.186758 
L 210.838104 215.56957 
Q 211.507479 215.887383 212.190917 216.05332 
Q 212.877167 216.219258 213.538104 216.219258 
Q 215.295917 216.219258 216.221229 215.038008 
Q 217.149354 213.856758 217.281542 211.446445 
Q 216.772479 212.203008 215.987792 212.608008 
Q 215.205917 213.013008 214.258104 213.013008 
Q 212.289354 213.013008 211.141854 211.82332 
Q 209.994354 210.63082 209.994354 208.563633 
Q 209.994354 206.544258 211.189667 205.323633 
Q 212.384979 204.100195 214.370604 204.100195 
Q 216.648729 204.100195 217.846854 205.846758 
Q 219.047792 207.590508 219.047792 210.91207 
Q 219.047792 214.014258 217.574042 215.864883 
Q 216.103104 217.715508 213.616854 217.715508 
Q 212.947479 217.715508 212.261229 217.58332 
Q 211.577792 217.451133 210.838104 217.186758 
z
M 214.370604 211.623633 
Q 215.565917 211.623633 216.263417 210.808008 
Q 216.963729 209.98957 216.963729 208.563633 
Q 216.963729 207.148945 216.263417 206.327695 
Q 215.565917 205.506445 214.370604 205.506445 
Q 213.175292 205.506445 212.477792 206.327695 
Q 211.780292 207.148945 211.780292 208.563633 
Q 211.780292 209.98957 212.477792 210.808008 
Q 213.175292 211.623633 214.370604 211.623633 
z
M 221.755878 203.80207 
L 223.162128 203.80207 
Q 224.478378 205.874883 225.13369 207.86332 
Q 225.789003 209.848945 225.789003 211.809258 
Q 225.789003 213.778008 225.13369 215.77207 
Q 224.478378 217.766133 223.162128 219.83332 
L 221.755878 219.83332 
Q 222.923065 217.81957 223.499628 215.82832 
Q 224.07619 213.83707 224.07619 211.809258 
Q 224.07619 209.778633 223.499628 207.801445 
Q 222.923065 205.821445 221.755878 203.80207 
z
"/>
   </g>
   <g id="text_7">
    <!-- Private -->
    <g transform="translate(480.592739 309.369932) scale(0.18 -0.18)">
     <defs>
      <path id="DejaVuSans-50" d="M 1259 4147 
L 1259 2394 
L 2053 2394 
Q 2494 2394 2734 2622 
Q 2975 2850 2975 3272 
Q 2975 3691 2734 3919 
Q 2494 4147 2053 4147 
L 1259 4147 
z
M 628 4666 
L 2053 4666 
Q 2838 4666 3239 4311 
Q 3641 3956 3641 3272 
Q 3641 2581 3239 2228 
Q 2838 1875 2053 1875 
L 1259 1875 
L 1259 0 
L 628 0 
L 628 4666 
z
" transform="scale(0.015625)"/>
      <path id="DejaVuSans-69" d="M 603 3500 
L 1178 3500 
L 1178 0 
L 603 0 
L 603 3500 
z
M 603 4863 
L 1178 4863 
L 1178 4134 
L 603 4134 
L 603 4863 
z
" transform="scale(0.015625)"/>
      <path id="DejaVuSans-76" d="M 191 3500 
L 800 3500 
L 1894 563 
L 2988 3500 
L 3597 3500 
L 2284 0 
L 1503 0 
L 191 3500 
z
" transform="scale(0.015625)"/>
      <path id="DejaVuSans-65" d="M 3597 1894 
L 3597 1613 
L 953 1613 
Q 991 1019 1311 708 
Q 1631 397 2203 397 
Q 2534 397 2845 478 
Q 3156 559 3463 722 
L 3463 178 
Q 3153 47 2828 -22 
Q 2503 -91 2169 -91 
Q 1331 -91 842 396 
Q 353 884 353 1716 
Q 353 2575 817 3079 
Q 1281 3584 2069 3584 
Q 2775 3584 3186 3129 
Q 3597 2675 3597 1894 
z
M 3022 2063 
Q 3016 2534 2758 2815 
Q 2500 3097 2075 3097 
Q 1594 3097 1305 2825 
Q 1016 2553 972 2059 
L 3022 2063 
z
" transform="scale(0.015625)"/>
     </defs>
     <use xlink:href="#DejaVuSans-50"/>
     <use xlink:href="#DejaVuSans-72" x="58.552734"/>
     <use xlink:href="#DejaVuSans-69" x="99.666016"/>
     <use xlink:href="#DejaVuSans-76" x="127.449219"/>
     <use xlink:href="#DejaVuSans-61" x="186.628906"/>
     <use xlink:href="#DejaVuSans-74" x="247.908203"/>
     <use xlink:href="#DejaVuSans-65" x="287.117188"/>
    </g>
   </g>
   <g id="text_8">
    <path d="M 348.795918 273.877542 
L 348.795918 272.260355 
Q 349.465293 272.578167 350.148731 272.744105 
Q 350.834981 272.910042 351.495918 272.910042 
Q 353.253731 272.910042 354.179043 271.728792 
Q 355.107168 270.547542 355.239356 268.13723 
Q 354.730293 268.893792 353.945606 269.298792 
Q 353.163731 269.703792 352.215918 269.703792 
Q 350.247168 269.703792 349.099668 268.514105 
Q 347.952168 267.321605 347.952168 265.254417 
Q 347.952168 263.235042 349.147481 262.014417 
Q 350.342793 260.79098 352.328418 260.79098 
Q 354.606543 260.79098 355.804668 262.537542 
Q 357.005606 264.281292 357.005606 267.602855 
Q 357.005606 270.705042 355.531856 272.555667 
Q 354.060918 274.406292 351.574668 274.406292 
Q 350.905293 274.406292 350.219043 274.274105 
Q 349.535606 274.141917 348.795918 273.877542 
z
M 352.328418 268.314417 
Q 353.523731 268.314417 354.221231 267.498792 
Q 354.921543 266.680355 354.921543 265.254417 
Q 354.921543 263.83973 354.221231 263.01848 
Q 353.523731 262.19723 352.328418 262.19723 
Q 351.133106 262.19723 350.435606 263.01848 
Q 349.738106 263.83973 349.738106 265.254417 
Q 349.738106 266.680355 350.435606 267.498792 
Q 351.133106 268.314417 352.328418 268.314417 
z
M 360.504004 272.656917 
L 363.403692 272.656917 
L 363.403692 262.644417 
L 360.248067 263.27723 
L 360.248067 261.660042 
L 363.386817 261.02723 
L 365.161504 261.02723 
L 365.161504 272.656917 
L 368.061192 272.656917 
L 368.061192 274.150355 
L 360.504004 274.150355 
L 360.504004 272.656917 
z
M 382.80959 268.376292 
Q 382.04459 268.376292 381.608653 269.02598 
Q 381.175528 269.675667 381.175528 270.83723 
Q 381.175528 271.979105 381.608653 272.634417 
Q 382.04459 273.28973 382.80959 273.28973 
Q 383.557715 273.28973 383.99084 272.634417 
Q 384.426778 271.979105 384.426778 270.83723 
Q 384.426778 269.684105 383.99084 269.031605 
Q 383.557715 268.376292 382.80959 268.376292 
z
M 382.80959 267.25973 
Q 384.198965 267.25973 385.01459 268.22723 
Q 385.833028 269.191917 385.833028 270.83723 
Q 385.833028 272.47973 385.011778 273.444417 
Q 384.190528 274.406292 382.80959 274.406292 
Q 381.40334 274.406292 380.584903 273.444417 
Q 379.769278 272.47973 379.769278 270.83723 
Q 379.769278 269.18348 380.590528 268.221605 
Q 381.411778 267.25973 382.80959 267.25973 
z
M 373.739278 261.907542 
Q 372.982715 261.907542 372.546778 262.562855 
Q 372.113653 263.215355 372.113653 264.360042 
Q 372.113653 265.518792 372.543965 266.171292 
Q 372.974278 266.82098 373.739278 266.82098 
Q 374.504278 266.82098 374.937403 266.171292 
Q 375.37334 265.518792 375.37334 264.360042 
Q 375.37334 263.226605 374.93459 262.56848 
Q 374.49584 261.907542 373.739278 261.907542 
z
M 381.676153 260.79098 
L 383.082403 260.79098 
L 374.872715 274.406292 
L 373.466465 274.406292 
L 381.676153 260.79098 
z
M 373.739278 260.79098 
Q 375.128653 260.79098 375.952715 261.752855 
Q 376.77959 262.71473 376.77959 264.360042 
Q 376.77959 266.019417 375.95834 266.97848 
Q 375.13709 267.937542 373.739278 267.937542 
Q 372.341465 267.937542 371.528653 266.975667 
Q 370.71584 266.01098 370.71584 264.360042 
Q 370.71584 262.723167 371.531465 261.75848 
Q 372.349903 260.79098 373.739278 260.79098 
z
M 398.128223 260.492855 
Q 396.952598 262.51223 396.378848 264.49223 
Q 395.807911 266.469417 395.807911 268.500042 
Q 395.807911 270.527855 396.384473 272.519105 
Q 396.961036 274.510355 398.128223 276.524105 
L 396.721973 276.524105 
Q 395.405723 274.456917 394.750411 272.462855 
Q 394.095098 270.468792 394.095098 268.500042 
Q 394.095098 266.53973 394.744786 264.554105 
Q 395.397286 262.565667 396.721973 260.492855 
L 398.128223 260.492855 
z
M 401.803809 272.656917 
L 404.703496 272.656917 
L 404.703496 262.644417 
L 401.547871 263.27723 
L 401.547871 261.660042 
L 404.686621 261.02723 
L 406.461309 261.02723 
L 406.461309 272.656917 
L 409.360996 272.656917 
L 409.360996 274.150355 
L 401.803809 274.150355 
L 401.803809 272.656917 
z
M 416.743457 267.917855 
Q 415.477832 267.917855 414.752207 268.595667 
Q 414.029395 269.27348 414.029395 270.457542 
Q 414.029395 271.644417 414.752207 272.32223 
Q 415.477832 273.000042 416.743457 273.000042 
Q 418.009082 273.000042 418.73752 272.319417 
Q 419.46877 271.63598 419.46877 270.457542 
Q 419.46877 269.27348 418.743145 268.595667 
Q 418.020332 267.917855 416.743457 267.917855 
z
M 414.96877 267.164105 
Q 413.826895 266.882855 413.188457 266.10098 
Q 412.552832 265.316292 412.552832 264.191292 
Q 412.552832 262.619105 413.672207 261.705042 
Q 414.794395 260.79098 416.743457 260.79098 
Q 418.70377 260.79098 419.820332 261.705042 
Q 420.936895 262.619105 420.936895 264.191292 
Q 420.936895 265.316292 420.298457 266.10098 
Q 419.662832 266.882855 418.529395 267.164105 
Q 419.811895 267.46223 420.52627 268.334105 
Q 421.243457 269.203167 421.243457 270.457542 
Q 421.243457 272.36723 420.079082 273.388167 
Q 418.914707 274.406292 416.743457 274.406292 
Q 414.57502 274.406292 413.407832 273.388167 
Q 412.243457 272.36723 412.243457 270.457542 
Q 412.243457 269.203167 412.963457 268.334105 
Q 413.68627 267.46223 414.96877 267.164105 
z
M 414.319082 264.360042 
Q 414.319082 265.378167 414.954707 265.949105 
Q 415.593145 266.520042 416.743457 266.520042 
Q 417.888145 266.520042 418.532207 265.949105 
Q 419.179082 265.378167 419.179082 264.360042 
Q 419.179082 263.339105 418.532207 262.768167 
Q 417.888145 262.19723 416.743457 262.19723 
Q 415.593145 262.19723 414.954707 262.768167 
Q 414.319082 263.339105 414.319082 264.360042 
z
M 428.195606 262.19723 
Q 426.825918 262.19723 426.134043 263.54723 
Q 425.444981 264.894417 425.444981 267.602855 
Q 425.444981 270.300042 426.134043 271.650042 
Q 426.825918 273.000042 428.195606 273.000042 
Q 429.576543 273.000042 430.265606 271.650042 
Q 430.957481 270.300042 430.957481 267.602855 
Q 430.957481 264.894417 430.265606 263.54723 
Q 429.576543 262.19723 428.195606 262.19723 
z
M 428.195606 260.79098 
Q 430.403418 260.79098 431.567793 262.537542 
Q 432.732168 264.281292 432.732168 267.602855 
Q 432.732168 270.91598 431.567793 272.662542 
Q 430.403418 274.406292 428.195606 274.406292 
Q 425.990606 274.406292 424.826231 272.662542 
Q 423.661856 270.91598 423.661856 267.602855 
Q 423.661856 264.281292 424.826231 262.537542 
Q 425.990606 260.79098 428.195606 260.79098 
z
M 440.730567 262.574105 
L 436.247442 269.580042 
L 440.730567 269.580042 
L 440.730567 262.574105 
z
M 440.263692 261.02723 
L 442.496817 261.02723 
L 442.496817 269.580042 
L 444.369942 269.580042 
L 444.369942 271.056605 
L 442.496817 271.056605 
L 442.496817 274.150355 
L 440.730567 274.150355 
L 440.730567 271.056605 
L 434.807442 271.056605 
L 434.807442 269.343792 
L 440.263692 261.02723 
z
M 446.82209 260.492855 
L 448.22834 260.492855 
Q 449.54459 262.565667 450.199903 264.554105 
Q 450.855215 266.53973 450.855215 268.500042 
Q 450.855215 270.468792 450.199903 272.462855 
Q 449.54459 274.456917 448.22834 276.524105 
L 446.82209 276.524105 
Q 447.989278 274.510355 448.56584 272.519105 
Q 449.142403 270.527855 449.142403 268.500042 
Q 449.142403 266.469417 448.56584 264.49223 
Q 447.989278 262.51223 446.82209 260.492855 
z
" style="stroke: #ffffff; stroke-width: 4"/>
    <path d="M 348.795918 273.877542 
L 348.795918 272.260355 
Q 349.465293 272.578167 350.148731 272.744105 
Q 350.834981 272.910042 351.495918 272.910042 
Q 353.253731 272.910042 354.179043 271.728792 
Q 355.107168 270.547542 355.239356 268.13723 
Q 354.730293 268.893792 353.945606 269.298792 
Q 353.163731 269.703792 352.215918 269.703792 
Q 350.247168 269.703792 349.099668 268.514105 
Q 347.952168 267.321605 347.952168 265.254417 
Q 347.952168 263.235042 349.147481 262.014417 
Q 350.342793 260.79098 352.328418 260.79098 
Q 354.606543 260.79098 355.804668 262.537542 
Q 357.005606 264.281292 357.005606 267.602855 
Q 357.005606 270.705042 355.531856 272.555667 
Q 354.060918 274.406292 351.574668 274.406292 
Q 350.905293 274.406292 350.219043 274.274105 
Q 349.535606 274.141917 348.795918 273.877542 
z
M 352.328418 268.314417 
Q 353.523731 268.314417 354.221231 267.498792 
Q 354.921543 266.680355 354.921543 265.254417 
Q 354.921543 263.83973 354.221231 263.01848 
Q 353.523731 262.19723 352.328418 262.19723 
Q 351.133106 262.19723 350.435606 263.01848 
Q 349.738106 263.83973 349.738106 265.254417 
Q 349.738106 266.680355 350.435606 267.498792 
Q 351.133106 268.314417 352.328418 268.314417 
z
M 360.504004 272.656917 
L 363.403692 272.656917 
L 363.403692 262.644417 
L 360.248067 263.27723 
L 360.248067 261.660042 
L 363.386817 261.02723 
L 365.161504 261.02723 
L 365.161504 272.656917 
L 368.061192 272.656917 
L 368.061192 274.150355 
L 360.504004 274.150355 
L 360.504004 272.656917 
z
M 382.80959 268.376292 
Q 382.04459 268.376292 381.608653 269.02598 
Q 381.175528 269.675667 381.175528 270.83723 
Q 381.175528 271.979105 381.608653 272.634417 
Q 382.04459 273.28973 382.80959 273.28973 
Q 383.557715 273.28973 383.99084 272.634417 
Q 384.426778 271.979105 384.426778 270.83723 
Q 384.426778 269.684105 383.99084 269.031605 
Q 383.557715 268.376292 382.80959 268.376292 
z
M 382.80959 267.25973 
Q 384.198965 267.25973 385.01459 268.22723 
Q 385.833028 269.191917 385.833028 270.83723 
Q 385.833028 272.47973 385.011778 273.444417 
Q 384.190528 274.406292 382.80959 274.406292 
Q 381.40334 274.406292 380.584903 273.444417 
Q 379.769278 272.47973 379.769278 270.83723 
Q 379.769278 269.18348 380.590528 268.221605 
Q 381.411778 267.25973 382.80959 267.25973 
z
M 373.739278 261.907542 
Q 372.982715 261.907542 372.546778 262.562855 
Q 372.113653 263.215355 372.113653 264.360042 
Q 372.113653 265.518792 372.543965 266.171292 
Q 372.974278 266.82098 373.739278 266.82098 
Q 374.504278 266.82098 374.937403 266.171292 
Q 375.37334 265.518792 375.37334 264.360042 
Q 375.37334 263.226605 374.93459 262.56848 
Q 374.49584 261.907542 373.739278 261.907542 
z
M 381.676153 260.79098 
L 383.082403 260.79098 
L 374.872715 274.406292 
L 373.466465 274.406292 
L 381.676153 260.79098 
z
M 373.739278 260.79098 
Q 375.128653 260.79098 375.952715 261.752855 
Q 376.77959 262.71473 376.77959 264.360042 
Q 376.77959 266.019417 375.95834 266.97848 
Q 375.13709 267.937542 373.739278 267.937542 
Q 372.341465 267.937542 371.528653 266.975667 
Q 370.71584 266.01098 370.71584 264.360042 
Q 370.71584 262.723167 371.531465 261.75848 
Q 372.349903 260.79098 373.739278 260.79098 
z
M 398.128223 260.492855 
Q 396.952598 262.51223 396.378848 264.49223 
Q 395.807911 266.469417 395.807911 268.500042 
Q 395.807911 270.527855 396.384473 272.519105 
Q 396.961036 274.510355 398.128223 276.524105 
L 396.721973 276.524105 
Q 395.405723 274.456917 394.750411 272.462855 
Q 394.095098 270.468792 394.095098 268.500042 
Q 394.095098 266.53973 394.744786 264.554105 
Q 395.397286 262.565667 396.721973 260.492855 
L 398.128223 260.492855 
z
M 401.803809 272.656917 
L 404.703496 272.656917 
L 404.703496 262.644417 
L 401.547871 263.27723 
L 401.547871 261.660042 
L 404.686621 261.02723 
L 406.461309 261.02723 
L 406.461309 272.656917 
L 409.360996 272.656917 
L 409.360996 274.150355 
L 401.803809 274.150355 
L 401.803809 272.656917 
z
M 416.743457 267.917855 
Q 415.477832 267.917855 414.752207 268.595667 
Q 414.029395 269.27348 414.029395 270.457542 
Q 414.029395 271.644417 414.752207 272.32223 
Q 415.477832 273.000042 416.743457 273.000042 
Q 418.009082 273.000042 418.73752 272.319417 
Q 419.46877 271.63598 419.46877 270.457542 
Q 419.46877 269.27348 418.743145 268.595667 
Q 418.020332 267.917855 416.743457 267.917855 
z
M 414.96877 267.164105 
Q 413.826895 266.882855 413.188457 266.10098 
Q 412.552832 265.316292 412.552832 264.191292 
Q 412.552832 262.619105 413.672207 261.705042 
Q 414.794395 260.79098 416.743457 260.79098 
Q 418.70377 260.79098 419.820332 261.705042 
Q 420.936895 262.619105 420.936895 264.191292 
Q 420.936895 265.316292 420.298457 266.10098 
Q 419.662832 266.882855 418.529395 267.164105 
Q 419.811895 267.46223 420.52627 268.334105 
Q 421.243457 269.203167 421.243457 270.457542 
Q 421.243457 272.36723 420.079082 273.388167 
Q 418.914707 274.406292 416.743457 274.406292 
Q 414.57502 274.406292 413.407832 273.388167 
Q 412.243457 272.36723 412.243457 270.457542 
Q 412.243457 269.203167 412.963457 268.334105 
Q 413.68627 267.46223 414.96877 267.164105 
z
M 414.319082 264.360042 
Q 414.319082 265.378167 414.954707 265.949105 
Q 415.593145 266.520042 416.743457 266.520042 
Q 417.888145 266.520042 418.532207 265.949105 
Q 419.179082 265.378167 419.179082 264.360042 
Q 419.179082 263.339105 418.532207 262.768167 
Q 417.888145 262.19723 416.743457 262.19723 
Q 415.593145 262.19723 414.954707 262.768167 
Q 414.319082 263.339105 414.319082 264.360042 
z
M 428.195606 262.19723 
Q 426.825918 262.19723 426.134043 263.54723 
Q 425.444981 264.894417 425.444981 267.602855 
Q 425.444981 270.300042 426.134043 271.650042 
Q 426.825918 273.000042 428.195606 273.000042 
Q 429.576543 273.000042 430.265606 271.650042 
Q 430.957481 270.300042 430.957481 267.602855 
Q 430.957481 264.894417 430.265606 263.54723 
Q 429.576543 262.19723 428.195606 262.19723 
z
M 428.195606 260.79098 
Q 430.403418 260.79098 431.567793 262.537542 
Q 432.732168 264.281292 432.732168 267.602855 
Q 432.732168 270.91598 431.567793 272.662542 
Q 430.403418 274.406292 428.195606 274.406292 
Q 425.990606 274.406292 424.826231 272.662542 
Q 423.661856 270.91598 423.661856 267.602855 
Q 423.661856 264.281292 424.826231 262.537542 
Q 425.990606 260.79098 428.195606 260.79098 
z
M 440.730567 262.574105 
L 436.247442 269.580042 
L 440.730567 269.580042 
L 440.730567 262.574105 
z
M 440.263692 261.02723 
L 442.496817 261.02723 
L 442.496817 269.580042 
L 444.369942 269.580042 
L 444.369942 271.056605 
L 442.496817 271.056605 
L 442.496817 274.150355 
L 440.730567 274.150355 
L 440.730567 271.056605 
L 434.807442 271.056605 
L 434.807442 269.343792 
L 440.263692 261.02723 
z
M 446.82209 260.492855 
L 448.22834 260.492855 
Q 449.54459 262.565667 450.199903 264.554105 
Q 450.855215 266.53973 450.855215 268.500042 
Q 450.855215 270.468792 450.199903 272.462855 
Q 449.54459 274.456917 448.22834 276.524105 
L 446.82209 276.524105 
Q 447.989278 274.510355 448.56584 272.519105 
Q 449.142403 270.527855 449.142403 268.500042 
Q 449.142403 266.469417 448.56584 264.49223 
Q 447.989278 262.51223 446.82209 260.492855 
z
"/>
   </g>
   <g id="text_9">
    <!-- Number of Addresses per Wallet Type -->
    <g transform="translate(114.962091 26.64) scale(0.2 -0.2)">
     <defs>
      <path id="DejaVuSans-4e" d="M 628 4666 
L 1478 4666 
L 3547 763 
L 3547 4666 
L 4159 4666 
L 4159 0 
L 3309 0 
L 1241 3903 
L 1241 0 
L 628 0 
L 628 4666 
z
" transform="scale(0.015625)"/>
      <path id="DejaVuSans-6d" d="M 3328 2828 
Q 3544 3216 3844 3400 
Q 4144 3584 4550 3584 
Q 5097 3584 5394 3201 
Q 5691 2819 5691 2113 
L 5691 0 
L 5113 0 
L 5113 2094 
Q 5113 2597 4934 2840 
Q 4756 3084 4391 3084 
Q 3944 3084 3684 2787 
Q 3425 2491 3425 1978 
L 3425 0 
L 2847 0 
L 2847 2094 
Q 2847 2600 2669 2842 
Q 2491 3084 2119 3084 
Q 1678 3084 1418 2786 
Q 1159 2488 1159 1978 
L 1159 0 
L 581 0 
L 581 3500 
L 1159 3500 
L 1159 2956 
Q 1356 3278 1631 3431 
Q 1906 3584 2284 3584 
Q 2666 3584 2933 3390 
Q 3200 3197 3328 2828 
z
" transform="scale(0.015625)"/>
      <path id="DejaVuSans-62" d="M 3116 1747 
Q 3116 2381 2855 2742 
Q 2594 3103 2138 3103 
Q 1681 3103 1420 2742 
Q 1159 2381 1159 1747 
Q 1159 1113 1420 752 
Q 1681 391 2138 391 
Q 2594 391 2855 752 
Q 3116 1113 3116 1747 
z
M 1159 2969 
Q 1341 3281 1617 3432 
Q 1894 3584 2278 3584 
Q 2916 3584 3314 3078 
Q 3713 2572 3713 1747 
Q 3713 922 3314 415 
Q 2916 -91 2278 -91 
Q 1894 -91 1617 61 
Q 1341 213 1159 525 
L 1159 0 
L 581 0 
L 581 4863 
L 1159 4863 
L 1159 2969 
z
" transform="scale(0.015625)"/>
      <path id="DejaVuSans-20" transform="scale(0.015625)"/>
      <path id="DejaVuSans-66" d="M 2375 4863 
L 2375 4384 
L 1825 4384 
Q 1516 4384 1395 4259 
Q 1275 4134 1275 3809 
L 1275 3500 
L 2222 3500 
L 2222 3053 
L 1275 3053 
L 1275 0 
L 697 0 
L 697 3053 
L 147 3053 
L 147 3500 
L 697 3500 
L 697 3744 
Q 697 4328 969 4595 
Q 1241 4863 1831 4863 
L 2375 4863 
z
" transform="scale(0.015625)"/>
      <path id="DejaVuSans-41" d="M 2188 4044 
L 1331 1722 
L 3047 1722 
L 2188 4044 
z
M 1831 4666 
L 2547 4666 
L 4325 0 
L 3669 0 
L 3244 1197 
L 1141 1197 
L 716 0 
L 50 0 
L 1831 4666 
z
" transform="scale(0.015625)"/>
      <path id="DejaVuSans-70" d="M 1159 525 
L 1159 -1331 
L 581 -1331 
L 581 3500 
L 1159 3500 
L 1159 2969 
Q 1341 3281 1617 3432 
Q 1894 3584 2278 3584 
Q 2916 3584 3314 3078 
Q 3713 2572 3713 1747 
Q 3713 922 3314 415 
Q 2916 -91 2278 -91 
Q 1894 -91 1617 61 
Q 1341 213 1159 525 
z
M 3116 1747 
Q 3116 2381 2855 2742 
Q 2594 3103 2138 3103 
Q 1681 3103 1420 2742 
Q 1159 2381 1159 1747 
Q 1159 1113 1420 752 
Q 1681 391 2138 391 
Q 2594 391 2855 752 
Q 3116 1113 3116 1747 
z
" transform="scale(0.015625)"/>
      <path id="DejaVuSans-57" d="M 213 4666 
L 850 4666 
L 1831 722 
L 2809 4666 
L 3519 4666 
L 4500 722 
L 5478 4666 
L 6119 4666 
L 4947 0 
L 4153 0 
L 3169 4050 
L 2175 0 
L 1381 0 
L 213 4666 
z
" transform="scale(0.015625)"/>
      <path id="DejaVuSans-6c" d="M 603 4863 
L 1178 4863 
L 1178 0 
L 603 0 
L 603 4863 
z
" transform="scale(0.015625)"/>
      <path id="DejaVuSans-54" d="M -19 4666 
L 3928 4666 
L 3928 4134 
L 2272 4134 
L 2272 0 
L 1638 0 
L 1638 4134 
L -19 4134 
L -19 4666 
z
" transform="scale(0.015625)"/>
     </defs>
     <use xlink:href="#DejaVuSans-4e"/>
     <use xlink:href="#DejaVuSans-75" x="74.804688"/>
     <use xlink:href="#DejaVuSans-6d" x="138.183594"/>
     <use xlink:href="#DejaVuSans-62" x="235.595703"/>
     <use xlink:href="#DejaVuSans-65" x="299.072266"/>
     <use xlink:href="#DejaVuSans-72" x="360.595703"/>
     <use xlink:href="#DejaVuSans-20" x="401.708984"/>
     <use xlink:href="#DejaVuSans-6f" x="433.496094"/>
     <use xlink:href="#DejaVuSans-66" x="494.677734"/>
     <use xlink:href="#DejaVuSans-20" x="529.882812"/>
     <use xlink:href="#DejaVuSans-41" x="561.669922"/>
     <use xlink:href="#DejaVuSans-64" x="628.328125"/>
     <use xlink:href="#DejaVuSans-64" x="691.804688"/>
     <use xlink:href="#DejaVuSans-72" x="755.28125"/>
     <use xlink:href="#DejaVuSans-65" x="794.144531"/>
     <use xlink:href="#DejaVuSans-73" x="855.667969"/>
     <use xlink:href="#DejaVuSans-73" x="907.767578"/>
     <use xlink:href="#DejaVuSans-65" x="959.867188"/>
     <use xlink:href="#DejaVuSans-73" x="1021.390625"/>
     <use xlink:href="#DejaVuSans-20" x="1073.490234"/>
     <use xlink:href="#DejaVuSans-70" x="1105.277344"/>
     <use xlink:href="#DejaVuSans-65" x="1168.753906"/>
     <use xlink:href="#DejaVuSans-72" x="1230.277344"/>
     <use xlink:href="#DejaVuSans-20" x="1271.390625"/>
     <use xlink:href="#DejaVuSans-57" x="1303.177734"/>
     <use xlink:href="#DejaVuSans-61" x="1395.679688"/>
     <use xlink:href="#DejaVuSans-6c" x="1456.958984"/>
     <use xlink:href="#DejaVuSans-6c" x="1484.742188"/>
     <use xlink:href="#DejaVuSans-65" x="1512.525391"/>
     <use xlink:href="#DejaVuSans-74" x="1574.048828"/>
     <use xlink:href="#DejaVuSans-20" x="1613.257812"/>
     <use xlink:href="#DejaVuSans-54" x="1645.044922"/>
     <use xlink:href="#DejaVuSans-79" x="1690.503906"/>
     <use xlink:href="#DejaVuSans-70" x="1749.683594"/>
     <use xlink:href="#DejaVuSans-65" x="1813.160156"/>
    </g>
   </g>
  </g>
  <g id="axes_2">
   <g id="patch_6">
    <path d="M 690.254396 113.392021 
C 676.719798 129.521927 666.178089 147.942975 659.127969 167.783717 
C 652.077848 187.624459 648.63227 208.567013 648.954235 229.620649 
C 649.2762 250.674285 653.360549 271.501687 661.014064 291.117572 
C 668.667579 310.733457 679.767637 328.823546 693.789128 344.532048 
C 707.810618 360.24055 724.528893 373.31579 743.153059 383.139215 
C 761.777225 392.96264 782.008892 399.376863 802.890958 402.078446 
C 823.773024 404.780029 844.970924 403.725687 865.481847 398.965299 
C 885.992769 394.204911 905.488095 385.814746 923.045557 374.191718 
C 940.603019 362.568691 955.941317 347.899021 968.33484 330.876688 
C 980.728364 313.854355 989.978548 294.752086 995.647794 274.473553 
C 1001.317039 254.19502 1003.314515 233.06512 1001.545727 212.083446 
C 999.776938 191.101772 994.270225 170.604487 985.286092 151.561257 
C 976.30196 132.518027 963.98435 115.233957 948.915972 100.526706 
C 933.847594 85.819455 916.26987 73.924658 897.01435 65.405023 
C 877.758829 56.885388 857.134019 51.877414 836.115619 50.618014 
C 815.097219 49.358613 794.021978 51.867964 773.886906 58.027357 
L 786.803127 100.250521 
C 801.904431 95.630977 817.710861 93.748963 833.474662 94.693514 
C 849.238462 95.638064 864.707069 99.394044 879.14871 105.783771 
C 893.59035 112.173497 906.773643 121.094595 918.074926 132.125033 
C 929.37621 143.155471 938.614417 156.118524 945.352517 170.400946 
C 952.090616 184.683369 956.220651 200.056333 957.547242 215.792588 
C 958.873834 231.528843 957.375727 247.376268 953.123793 262.585168 
C 948.871858 277.794068 941.93422 292.12077 932.639078 304.887519 
C 923.343935 317.654269 911.840212 328.656521 898.672115 337.373792 
C 885.504019 346.091063 870.882524 352.383687 855.499332 355.953978 
C 840.11614 359.524269 824.217715 360.315025 808.556166 358.288838 
C 792.894616 356.262651 777.720866 351.451984 763.752742 344.084415 
C 749.784617 336.716846 737.245911 326.910416 726.729793 315.129039 
C 716.213675 303.347663 707.888631 289.780096 702.148495 275.068182 
C 696.408359 260.356269 693.345097 244.735717 693.103624 228.94549 
C 692.86215 213.155263 695.446334 197.448347 700.733924 182.567791 
C 706.021514 167.687234 713.927796 153.871449 724.078745 141.774019 
z
" style="fill: #1f77b4; stroke: #ffffff; stroke-width: 0.25; stroke-linejoin: miter"/>
   </g>
   <g id="patch_7">
    <path d="M 773.886956 58.027339 
C 757.650923 62.993997 742.215663 70.27597 728.058102 79.648257 
C 713.900541 89.020545 701.168076 100.385591 690.254376 113.392037 
L 724.07873 141.774032 
C 732.264005 132.019196 741.813353 123.495412 752.431524 116.466196 
C 763.049694 109.436981 774.62614 103.975501 786.803164 100.250508 
z
" style="fill: #ff7f0e; stroke: #ffffff; stroke-width: 0.25; stroke-linejoin: miter"/>
   </g>
   <g id="matplotlib.axis_3"/>
   <g id="matplotlib.axis_4"/>
   <g id="text_10">
    <!-- Active -->
    <g transform="translate(932.79495 393.885753) scale(0.18 -0.18)">
     <use xlink:href="#DejaVuSans-41"/>
     <use xlink:href="#DejaVuSans-63" x="66.658203"/>
     <use xlink:href="#DejaVuSans-74" x="121.638672"/>
     <use xlink:href="#DejaVuSans-69" x="160.847656"/>
     <use xlink:href="#DejaVuSans-76" x="188.630859"/>
     <use xlink:href="#DejaVuSans-65" x="247.810547"/>
    </g>
   </g>
   <g id="text_11">
    <path d="M 833.233215 319.977093 
L 833.233215 318.359906 
Q 833.90259 318.677718 834.586027 318.843656 
Q 835.272277 319.009593 835.933215 319.009593 
Q 837.691027 319.009593 838.61634 317.828343 
Q 839.544465 316.647093 839.676652 314.236781 
Q 839.16759 314.993343 838.382902 315.398343 
Q 837.601027 315.803343 836.653215 315.803343 
Q 834.684465 315.803343 833.536965 314.613656 
Q 832.389465 313.421156 832.389465 311.353968 
Q 832.389465 309.334593 833.584777 308.113968 
Q 834.78009 306.890531 836.765715 306.890531 
Q 839.04384 306.890531 840.241965 308.637093 
Q 841.442902 310.380843 841.442902 313.702406 
Q 841.442902 316.804593 839.969152 318.655218 
Q 838.498215 320.505843 836.011965 320.505843 
Q 835.34259 320.505843 834.65634 320.373656 
Q 833.972902 320.241468 833.233215 319.977093 
z
M 836.765715 314.413968 
Q 837.961027 314.413968 838.658527 313.598343 
Q 839.35884 312.779906 839.35884 311.353968 
Q 839.35884 309.939281 838.658527 309.118031 
Q 837.961027 308.296781 836.765715 308.296781 
Q 835.570402 308.296781 834.872902 309.118031 
Q 834.175402 309.939281 834.175402 311.353968 
Q 834.175402 312.779906 834.872902 313.598343 
Q 835.570402 314.413968 836.765715 314.413968 
z
M 844.941301 318.756468 
L 847.840988 318.756468 
L 847.840988 308.743968 
L 844.685363 309.376781 
L 844.685363 307.759593 
L 847.824113 307.126781 
L 849.598801 307.126781 
L 849.598801 318.756468 
L 852.498488 318.756468 
L 852.498488 320.249906 
L 844.941301 320.249906 
L 844.941301 318.756468 
z
M 867.246887 314.475843 
Q 866.481887 314.475843 866.045949 315.125531 
Q 865.612824 315.775218 865.612824 316.936781 
Q 865.612824 318.078656 866.045949 318.733968 
Q 866.481887 319.389281 867.246887 319.389281 
Q 867.995012 319.389281 868.428137 318.733968 
Q 868.864074 318.078656 868.864074 316.936781 
Q 868.864074 315.783656 868.428137 315.131156 
Q 867.995012 314.475843 867.246887 314.475843 
z
M 867.246887 313.359281 
Q 868.636262 313.359281 869.451887 314.326781 
Q 870.270324 315.291468 870.270324 316.936781 
Q 870.270324 318.579281 869.449074 319.543968 
Q 868.627824 320.505843 867.246887 320.505843 
Q 865.840637 320.505843 865.022199 319.543968 
Q 864.206574 318.579281 864.206574 316.936781 
Q 864.206574 315.283031 865.027824 314.321156 
Q 865.849074 313.359281 867.246887 313.359281 
z
M 858.176574 308.007093 
Q 857.420012 308.007093 856.984074 308.662406 
Q 856.550949 309.314906 856.550949 310.459593 
Q 856.550949 311.618343 856.981262 312.270843 
Q 857.411574 312.920531 858.176574 312.920531 
Q 858.941574 312.920531 859.374699 312.270843 
Q 859.810637 311.618343 859.810637 310.459593 
Q 859.810637 309.326156 859.371887 308.668031 
Q 858.933137 308.007093 858.176574 308.007093 
z
M 866.113449 306.890531 
L 867.519699 306.890531 
L 859.310012 320.505843 
L 857.903762 320.505843 
L 866.113449 306.890531 
z
M 858.176574 306.890531 
Q 859.565949 306.890531 860.390012 307.852406 
Q 861.216887 308.814281 861.216887 310.459593 
Q 861.216887 312.118968 860.395637 313.078031 
Q 859.574387 314.037093 858.176574 314.037093 
Q 856.778762 314.037093 855.965949 313.075218 
Q 855.153137 312.110531 855.153137 310.459593 
Q 855.153137 308.822718 855.968762 307.858031 
Q 856.787199 306.890531 858.176574 306.890531 
z
M 882.56552 306.592406 
Q 881.389895 308.611781 880.816145 310.591781 
Q 880.245207 312.568968 880.245207 314.599593 
Q 880.245207 316.627406 880.82177 318.618656 
Q 881.398332 320.609906 882.56552 322.623656 
L 881.15927 322.623656 
Q 879.84302 320.556468 879.187707 318.562406 
Q 878.532395 316.568343 878.532395 314.599593 
Q 878.532395 312.639281 879.182082 310.653656 
Q 879.834582 308.665218 881.15927 306.592406 
L 882.56552 306.592406 
z
M 886.241105 318.756468 
L 889.140793 318.756468 
L 889.140793 308.743968 
L 885.985168 309.376781 
L 885.985168 307.759593 
L 889.123918 307.126781 
L 890.898605 307.126781 
L 890.898605 318.756468 
L 893.798293 318.756468 
L 893.798293 320.249906 
L 886.241105 320.249906 
L 886.241105 318.756468 
z
M 901.180754 314.017406 
Q 899.915129 314.017406 899.189504 314.695218 
Q 898.466691 315.373031 898.466691 316.557093 
Q 898.466691 317.743968 899.189504 318.421781 
Q 899.915129 319.099593 901.180754 319.099593 
Q 902.446379 319.099593 903.174816 318.418968 
Q 903.906066 317.735531 903.906066 316.557093 
Q 903.906066 315.373031 903.180441 314.695218 
Q 902.457629 314.017406 901.180754 314.017406 
z
M 899.406066 313.263656 
Q 898.264191 312.982406 897.625754 312.200531 
Q 896.990129 311.415843 896.990129 310.290843 
Q 896.990129 308.718656 898.109504 307.804593 
Q 899.231691 306.890531 901.180754 306.890531 
Q 903.141066 306.890531 904.257629 307.804593 
Q 905.374191 308.718656 905.374191 310.290843 
Q 905.374191 311.415843 904.735754 312.200531 
Q 904.100129 312.982406 902.966691 313.263656 
Q 904.249191 313.561781 904.963566 314.433656 
Q 905.680754 315.302718 905.680754 316.557093 
Q 905.680754 318.466781 904.516379 319.487718 
Q 903.352004 320.505843 901.180754 320.505843 
Q 899.012316 320.505843 897.845129 319.487718 
Q 896.680754 318.466781 896.680754 316.557093 
Q 896.680754 315.302718 897.400754 314.433656 
Q 898.123566 313.561781 899.406066 313.263656 
z
M 898.756379 310.459593 
Q 898.756379 311.477718 899.392004 312.048656 
Q 900.030441 312.619593 901.180754 312.619593 
Q 902.325441 312.619593 902.969504 312.048656 
Q 903.616379 311.477718 903.616379 310.459593 
Q 903.616379 309.438656 902.969504 308.867718 
Q 902.325441 308.296781 901.180754 308.296781 
Q 900.030441 308.296781 899.392004 308.867718 
Q 898.756379 309.438656 898.756379 310.459593 
z
M 912.632902 308.296781 
Q 911.263215 308.296781 910.57134 309.646781 
Q 909.882277 310.993968 909.882277 313.702406 
Q 909.882277 316.399593 910.57134 317.749593 
Q 911.263215 319.099593 912.632902 319.099593 
Q 914.01384 319.099593 914.702902 317.749593 
Q 915.394777 316.399593 915.394777 313.702406 
Q 915.394777 310.993968 914.702902 309.646781 
Q 914.01384 308.296781 912.632902 308.296781 
z
M 912.632902 306.890531 
Q 914.840715 306.890531 916.00509 308.637093 
Q 917.169465 310.380843 917.169465 313.702406 
Q 917.169465 317.015531 916.00509 318.762093 
Q 914.840715 320.505843 912.632902 320.505843 
Q 910.427902 320.505843 909.263527 318.762093 
Q 908.099152 317.015531 908.099152 313.702406 
Q 908.099152 310.380843 909.263527 308.637093 
Q 910.427902 306.890531 912.632902 306.890531 
z
M 925.167863 308.673656 
L 920.684738 315.679593 
L 925.167863 315.679593 
L 925.167863 308.673656 
z
M 924.700988 307.126781 
L 926.934113 307.126781 
L 926.934113 315.679593 
L 928.807238 315.679593 
L 928.807238 317.156156 
L 926.934113 317.156156 
L 926.934113 320.249906 
L 925.167863 320.249906 
L 925.167863 317.156156 
L 919.244738 317.156156 
L 919.244738 315.443343 
L 924.700988 307.126781 
z
M 931.259387 306.592406 
L 932.665637 306.592406 
Q 933.981887 308.665218 934.637199 310.653656 
Q 935.292512 312.639281 935.292512 314.599593 
Q 935.292512 316.568343 934.637199 318.562406 
Q 933.981887 320.556468 932.665637 322.623656 
L 931.259387 322.623656 
Q 932.426574 320.609906 933.003137 318.618656 
Q 933.579699 316.627406 933.579699 314.599593 
Q 933.579699 312.568968 933.003137 310.591781 
Q 932.426574 308.611781 931.259387 306.592406 
z
" style="stroke: #ffffff; stroke-width: 4"/>
    <path d="M 833.233215 319.977093 
L 833.233215 318.359906 
Q 833.90259 318.677718 834.586027 318.843656 
Q 835.272277 319.009593 835.933215 319.009593 
Q 837.691027 319.009593 838.61634 317.828343 
Q 839.544465 316.647093 839.676652 314.236781 
Q 839.16759 314.993343 838.382902 315.398343 
Q 837.601027 315.803343 836.653215 315.803343 
Q 834.684465 315.803343 833.536965 314.613656 
Q 832.389465 313.421156 832.389465 311.353968 
Q 832.389465 309.334593 833.584777 308.113968 
Q 834.78009 306.890531 836.765715 306.890531 
Q 839.04384 306.890531 840.241965 308.637093 
Q 841.442902 310.380843 841.442902 313.702406 
Q 841.442902 316.804593 839.969152 318.655218 
Q 838.498215 320.505843 836.011965 320.505843 
Q 835.34259 320.505843 834.65634 320.373656 
Q 833.972902 320.241468 833.233215 319.977093 
z
M 836.765715 314.413968 
Q 837.961027 314.413968 838.658527 313.598343 
Q 839.35884 312.779906 839.35884 311.353968 
Q 839.35884 309.939281 838.658527 309.118031 
Q 837.961027 308.296781 836.765715 308.296781 
Q 835.570402 308.296781 834.872902 309.118031 
Q 834.175402 309.939281 834.175402 311.353968 
Q 834.175402 312.779906 834.872902 313.598343 
Q 835.570402 314.413968 836.765715 314.413968 
z
M 844.941301 318.756468 
L 847.840988 318.756468 
L 847.840988 308.743968 
L 844.685363 309.376781 
L 844.685363 307.759593 
L 847.824113 307.126781 
L 849.598801 307.126781 
L 849.598801 318.756468 
L 852.498488 318.756468 
L 852.498488 320.249906 
L 844.941301 320.249906 
L 844.941301 318.756468 
z
M 867.246887 314.475843 
Q 866.481887 314.475843 866.045949 315.125531 
Q 865.612824 315.775218 865.612824 316.936781 
Q 865.612824 318.078656 866.045949 318.733968 
Q 866.481887 319.389281 867.246887 319.389281 
Q 867.995012 319.389281 868.428137 318.733968 
Q 868.864074 318.078656 868.864074 316.936781 
Q 868.864074 315.783656 868.428137 315.131156 
Q 867.995012 314.475843 867.246887 314.475843 
z
M 867.246887 313.359281 
Q 868.636262 313.359281 869.451887 314.326781 
Q 870.270324 315.291468 870.270324 316.936781 
Q 870.270324 318.579281 869.449074 319.543968 
Q 868.627824 320.505843 867.246887 320.505843 
Q 865.840637 320.505843 865.022199 319.543968 
Q 864.206574 318.579281 864.206574 316.936781 
Q 864.206574 315.283031 865.027824 314.321156 
Q 865.849074 313.359281 867.246887 313.359281 
z
M 858.176574 308.007093 
Q 857.420012 308.007093 856.984074 308.662406 
Q 856.550949 309.314906 856.550949 310.459593 
Q 856.550949 311.618343 856.981262 312.270843 
Q 857.411574 312.920531 858.176574 312.920531 
Q 858.941574 312.920531 859.374699 312.270843 
Q 859.810637 311.618343 859.810637 310.459593 
Q 859.810637 309.326156 859.371887 308.668031 
Q 858.933137 308.007093 858.176574 308.007093 
z
M 866.113449 306.890531 
L 867.519699 306.890531 
L 859.310012 320.505843 
L 857.903762 320.505843 
L 866.113449 306.890531 
z
M 858.176574 306.890531 
Q 859.565949 306.890531 860.390012 307.852406 
Q 861.216887 308.814281 861.216887 310.459593 
Q 861.216887 312.118968 860.395637 313.078031 
Q 859.574387 314.037093 858.176574 314.037093 
Q 856.778762 314.037093 855.965949 313.075218 
Q 855.153137 312.110531 855.153137 310.459593 
Q 855.153137 308.822718 855.968762 307.858031 
Q 856.787199 306.890531 858.176574 306.890531 
z
M 882.56552 306.592406 
Q 881.389895 308.611781 880.816145 310.591781 
Q 880.245207 312.568968 880.245207 314.599593 
Q 880.245207 316.627406 880.82177 318.618656 
Q 881.398332 320.609906 882.56552 322.623656 
L 881.15927 322.623656 
Q 879.84302 320.556468 879.187707 318.562406 
Q 878.532395 316.568343 878.532395 314.599593 
Q 878.532395 312.639281 879.182082 310.653656 
Q 879.834582 308.665218 881.15927 306.592406 
L 882.56552 306.592406 
z
M 886.241105 318.756468 
L 889.140793 318.756468 
L 889.140793 308.743968 
L 885.985168 309.376781 
L 885.985168 307.759593 
L 889.123918 307.126781 
L 890.898605 307.126781 
L 890.898605 318.756468 
L 893.798293 318.756468 
L 893.798293 320.249906 
L 886.241105 320.249906 
L 886.241105 318.756468 
z
M 901.180754 314.017406 
Q 899.915129 314.017406 899.189504 314.695218 
Q 898.466691 315.373031 898.466691 316.557093 
Q 898.466691 317.743968 899.189504 318.421781 
Q 899.915129 319.099593 901.180754 319.099593 
Q 902.446379 319.099593 903.174816 318.418968 
Q 903.906066 317.735531 903.906066 316.557093 
Q 903.906066 315.373031 903.180441 314.695218 
Q 902.457629 314.017406 901.180754 314.017406 
z
M 899.406066 313.263656 
Q 898.264191 312.982406 897.625754 312.200531 
Q 896.990129 311.415843 896.990129 310.290843 
Q 896.990129 308.718656 898.109504 307.804593 
Q 899.231691 306.890531 901.180754 306.890531 
Q 903.141066 306.890531 904.257629 307.804593 
Q 905.374191 308.718656 905.374191 310.290843 
Q 905.374191 311.415843 904.735754 312.200531 
Q 904.100129 312.982406 902.966691 313.263656 
Q 904.249191 313.561781 904.963566 314.433656 
Q 905.680754 315.302718 905.680754 316.557093 
Q 905.680754 318.466781 904.516379 319.487718 
Q 903.352004 320.505843 901.180754 320.505843 
Q 899.012316 320.505843 897.845129 319.487718 
Q 896.680754 318.466781 896.680754 316.557093 
Q 896.680754 315.302718 897.400754 314.433656 
Q 898.123566 313.561781 899.406066 313.263656 
z
M 898.756379 310.459593 
Q 898.756379 311.477718 899.392004 312.048656 
Q 900.030441 312.619593 901.180754 312.619593 
Q 902.325441 312.619593 902.969504 312.048656 
Q 903.616379 311.477718 903.616379 310.459593 
Q 903.616379 309.438656 902.969504 308.867718 
Q 902.325441 308.296781 901.180754 308.296781 
Q 900.030441 308.296781 899.392004 308.867718 
Q 898.756379 309.438656 898.756379 310.459593 
z
M 912.632902 308.296781 
Q 911.263215 308.296781 910.57134 309.646781 
Q 909.882277 310.993968 909.882277 313.702406 
Q 909.882277 316.399593 910.57134 317.749593 
Q 911.263215 319.099593 912.632902 319.099593 
Q 914.01384 319.099593 914.702902 317.749593 
Q 915.394777 316.399593 915.394777 313.702406 
Q 915.394777 310.993968 914.702902 309.646781 
Q 914.01384 308.296781 912.632902 308.296781 
z
M 912.632902 306.890531 
Q 914.840715 306.890531 916.00509 308.637093 
Q 917.169465 310.380843 917.169465 313.702406 
Q 917.169465 317.015531 916.00509 318.762093 
Q 914.840715 320.505843 912.632902 320.505843 
Q 910.427902 320.505843 909.263527 318.762093 
Q 908.099152 317.015531 908.099152 313.702406 
Q 908.099152 310.380843 909.263527 308.637093 
Q 910.427902 306.890531 912.632902 306.890531 
z
M 925.167863 308.673656 
L 920.684738 315.679593 
L 925.167863 315.679593 
L 925.167863 308.673656 
z
M 924.700988 307.126781 
L 926.934113 307.126781 
L 926.934113 315.679593 
L 928.807238 315.679593 
L 928.807238 317.156156 
L 926.934113 317.156156 
L 926.934113 320.249906 
L 925.167863 320.249906 
L 925.167863 317.156156 
L 919.244738 317.156156 
L 919.244738 315.443343 
L 924.700988 307.126781 
z
M 931.259387 306.592406 
L 932.665637 306.592406 
Q 933.981887 308.665218 934.637199 310.653656 
Q 935.292512 312.639281 935.292512 314.599593 
Q 935.292512 316.568343 934.637199 318.562406 
Q 933.981887 320.556468 932.665637 322.623656 
L 931.259387 322.623656 
Q 932.426574 320.609906 933.003137 318.618656 
Q 933.579699 316.627406 933.579699 314.599593 
Q 933.579699 312.568968 933.003137 310.591781 
Q 932.426574 308.611781 931.259387 306.592406 
z
"/>
   </g>
   <g id="text_12">
    <!-- Inactive -->
    <g transform="translate(646.876702 69.888059) scale(0.18 -0.18)">
     <defs>
      <path id="DejaVuSans-49" d="M 628 4666 
L 1259 4666 
L 1259 0 
L 628 0 
L 628 4666 
z
" transform="scale(0.015625)"/>
     </defs>
     <use xlink:href="#DejaVuSans-49"/>
     <use xlink:href="#DejaVuSans-6e" x="29.492188"/>
     <use xlink:href="#DejaVuSans-61" x="92.871094"/>
     <use xlink:href="#DejaVuSans-63" x="154.150391"/>
     <use xlink:href="#DejaVuSans-74" x="209.130859"/>
     <use xlink:href="#DejaVuSans-69" x="248.339844"/>
     <use xlink:href="#DejaVuSans-76" x="276.123047"/>
     <use xlink:href="#DejaVuSans-65" x="335.302734"/>
    </g>
   </g>
   <g id="text_13">
    <path d="M 727.693148 143.251078 
L 727.693148 141.633891 
Q 728.362523 141.951703 729.04596 142.117641 
Q 729.73221 142.283578 730.393148 142.283578 
Q 732.15096 142.283578 733.076273 141.102328 
Q 734.004398 139.921078 734.136585 137.510766 
Q 733.627523 138.267328 732.842835 138.672328 
Q 732.06096 139.077328 731.113148 139.077328 
Q 729.144398 139.077328 727.996898 137.887641 
Q 726.849398 136.695141 726.849398 134.627953 
Q 726.849398 132.608578 728.04471 131.387953 
Q 729.240023 130.164516 731.225648 130.164516 
Q 733.503773 130.164516 734.701898 131.911078 
Q 735.902835 133.654828 735.902835 136.976391 
Q 735.902835 140.078578 734.429085 141.929203 
Q 732.958148 143.779828 730.471898 143.779828 
Q 729.802523 143.779828 729.116273 143.647641 
Q 728.432835 143.515453 727.693148 143.251078 
z
M 731.225648 137.687953 
Q 732.42096 137.687953 733.11846 136.872328 
Q 733.818773 136.053891 733.818773 134.627953 
Q 733.818773 133.213266 733.11846 132.392016 
Q 732.42096 131.570766 731.225648 131.570766 
Q 730.030335 131.570766 729.332835 132.392016 
Q 728.635335 133.213266 728.635335 134.627953 
Q 728.635335 136.053891 729.332835 136.872328 
Q 730.030335 137.687953 731.225648 137.687953 
z
M 750.254671 137.749828 
Q 749.489671 137.749828 749.053734 138.399516 
Q 748.620609 139.049203 748.620609 140.210766 
Q 748.620609 141.352641 749.053734 142.007953 
Q 749.489671 142.663266 750.254671 142.663266 
Q 751.002796 142.663266 751.435921 142.007953 
Q 751.871859 141.352641 751.871859 140.210766 
Q 751.871859 139.057641 751.435921 138.405141 
Q 751.002796 137.749828 750.254671 137.749828 
z
M 750.254671 136.633266 
Q 751.644046 136.633266 752.459671 137.600766 
Q 753.278109 138.565453 753.278109 140.210766 
Q 753.278109 141.853266 752.456859 142.817953 
Q 751.635609 143.779828 750.254671 143.779828 
Q 748.848421 143.779828 748.029984 142.817953 
Q 747.214359 141.853266 747.214359 140.210766 
Q 747.214359 138.557016 748.035609 137.595141 
Q 748.856859 136.633266 750.254671 136.633266 
z
M 741.184359 131.281078 
Q 740.427796 131.281078 739.991859 131.936391 
Q 739.558734 132.588891 739.558734 133.733578 
Q 739.558734 134.892328 739.989046 135.544828 
Q 740.419359 136.194516 741.184359 136.194516 
Q 741.949359 136.194516 742.382484 135.544828 
Q 742.818421 134.892328 742.818421 133.733578 
Q 742.818421 132.600141 742.379671 131.942016 
Q 741.940921 131.281078 741.184359 131.281078 
z
M 749.121234 130.164516 
L 750.527484 130.164516 
L 742.317796 143.779828 
L 740.911546 143.779828 
L 749.121234 130.164516 
z
M 741.184359 130.164516 
Q 742.573734 130.164516 743.397796 131.126391 
Q 744.224671 132.088266 744.224671 133.733578 
Q 744.224671 135.392953 743.403421 136.352016 
Q 742.582171 137.311078 741.184359 137.311078 
Q 739.786546 137.311078 738.973734 136.349203 
Q 738.160921 135.384516 738.160921 133.733578 
Q 738.160921 132.096703 738.976546 131.132016 
Q 739.794984 130.164516 741.184359 130.164516 
z
M 765.573304 129.866391 
Q 764.397679 131.885766 763.823929 133.865766 
Q 763.252992 135.842953 763.252992 137.873578 
Q 763.252992 139.901391 763.829554 141.892641 
Q 764.406117 143.883891 765.573304 145.897641 
L 764.167054 145.897641 
Q 762.850804 143.830453 762.195492 141.836391 
Q 761.540179 139.842328 761.540179 137.873578 
Q 761.540179 135.913266 762.189867 133.927641 
Q 762.842367 131.939203 764.167054 129.866391 
L 765.573304 129.866391 
z
M 769.24889 142.030453 
L 772.148578 142.030453 
L 772.148578 132.017953 
L 768.992953 132.650766 
L 768.992953 131.033578 
L 772.131703 130.400766 
L 773.90639 130.400766 
L 773.90639 142.030453 
L 776.806078 142.030453 
L 776.806078 143.523891 
L 769.24889 143.523891 
L 769.24889 142.030453 
z
M 784.188538 137.291391 
Q 782.922913 137.291391 782.197288 137.969203 
Q 781.474476 138.647016 781.474476 139.831078 
Q 781.474476 141.017953 782.197288 141.695766 
Q 782.922913 142.373578 784.188538 142.373578 
Q 785.454163 142.373578 786.182601 141.692953 
Q 786.913851 141.009516 786.913851 139.831078 
Q 786.913851 138.647016 786.188226 137.969203 
Q 785.465413 137.291391 784.188538 137.291391 
z
M 782.413851 136.537641 
Q 781.271976 136.256391 780.633538 135.474516 
Q 779.997913 134.689828 779.997913 133.564828 
Q 779.997913 131.992641 781.117288 131.078578 
Q 782.239476 130.164516 784.188538 130.164516 
Q 786.148851 130.164516 787.265413 131.078578 
Q 788.381976 131.992641 788.381976 133.564828 
Q 788.381976 134.689828 787.743538 135.474516 
Q 787.107913 136.256391 785.974476 136.537641 
Q 787.256976 136.835766 787.971351 137.707641 
Q 788.688538 138.576703 788.688538 139.831078 
Q 788.688538 141.740766 787.524163 142.761703 
Q 786.359788 143.779828 784.188538 143.779828 
Q 782.020101 143.779828 780.852913 142.761703 
Q 779.688538 141.740766 779.688538 139.831078 
Q 779.688538 138.576703 780.408538 137.707641 
Q 781.131351 136.835766 782.413851 136.537641 
z
M 781.764163 133.733578 
Q 781.764163 134.751703 782.399788 135.322641 
Q 783.038226 135.893578 784.188538 135.893578 
Q 785.333226 135.893578 785.977288 135.322641 
Q 786.624163 134.751703 786.624163 133.733578 
Q 786.624163 132.712641 785.977288 132.141703 
Q 785.333226 131.570766 784.188538 131.570766 
Q 783.038226 131.570766 782.399788 132.141703 
Q 781.764163 132.712641 781.764163 133.733578 
z
M 793.373812 142.030453 
L 799.569749 142.030453 
L 799.569749 143.523891 
L 791.239124 143.523891 
L 791.239124 142.030453 
Q 792.248812 140.984203 793.992562 139.223578 
Q 795.739124 137.460141 796.186312 136.948266 
Q 797.038499 135.992016 797.375999 135.328266 
Q 797.716312 134.664516 797.716312 134.023266 
Q 797.716312 132.977016 796.982249 132.318891 
Q 796.248187 131.657953 795.069749 131.657953 
Q 794.234437 131.657953 793.306312 131.947641 
Q 792.380999 132.237328 791.326312 132.827953 
L 791.326312 131.033578 
Q 792.397874 130.603266 793.328812 130.383891 
Q 794.262562 130.164516 795.035999 130.164516 
Q 797.075062 130.164516 798.287249 131.185453 
Q 799.499437 132.203578 799.499437 133.907953 
Q 799.499437 134.717953 799.195687 135.443578 
Q 798.894749 136.166391 798.093187 137.150766 
Q 797.873812 137.406703 796.695374 138.624516 
Q 795.519749 139.842328 793.373812 142.030453 
z
M 802.815023 129.866391 
L 804.221273 129.866391 
Q 805.537523 131.939203 806.192835 133.927641 
Q 806.848148 135.913266 806.848148 137.873578 
Q 806.848148 139.842328 806.192835 141.836391 
Q 805.537523 143.830453 804.221273 145.897641 
L 802.815023 145.897641 
Q 803.98221 143.883891 804.558773 141.892641 
Q 805.135335 139.901391 805.135335 137.873578 
Q 805.135335 135.842953 804.558773 133.865766 
Q 803.98221 131.885766 802.815023 129.866391 
z
" style="stroke: #ffffff; stroke-width: 4"/>
    <path d="M 727.693148 143.251078 
L 727.693148 141.633891 
Q 728.362523 141.951703 729.04596 142.117641 
Q 729.73221 142.283578 730.393148 142.283578 
Q 732.15096 142.283578 733.076273 141.102328 
Q 734.004398 139.921078 734.136585 137.510766 
Q 733.627523 138.267328 732.842835 138.672328 
Q 732.06096 139.077328 731.113148 139.077328 
Q 729.144398 139.077328 727.996898 137.887641 
Q 726.849398 136.695141 726.849398 134.627953 
Q 726.849398 132.608578 728.04471 131.387953 
Q 729.240023 130.164516 731.225648 130.164516 
Q 733.503773 130.164516 734.701898 131.911078 
Q 735.902835 133.654828 735.902835 136.976391 
Q 735.902835 140.078578 734.429085 141.929203 
Q 732.958148 143.779828 730.471898 143.779828 
Q 729.802523 143.779828 729.116273 143.647641 
Q 728.432835 143.515453 727.693148 143.251078 
z
M 731.225648 137.687953 
Q 732.42096 137.687953 733.11846 136.872328 
Q 733.818773 136.053891 733.818773 134.627953 
Q 733.818773 133.213266 733.11846 132.392016 
Q 732.42096 131.570766 731.225648 131.570766 
Q 730.030335 131.570766 729.332835 132.392016 
Q 728.635335 133.213266 728.635335 134.627953 
Q 728.635335 136.053891 729.332835 136.872328 
Q 730.030335 137.687953 731.225648 137.687953 
z
M 750.254671 137.749828 
Q 749.489671 137.749828 749.053734 138.399516 
Q 748.620609 139.049203 748.620609 140.210766 
Q 748.620609 141.352641 749.053734 142.007953 
Q 749.489671 142.663266 750.254671 142.663266 
Q 751.002796 142.663266 751.435921 142.007953 
Q 751.871859 141.352641 751.871859 140.210766 
Q 751.871859 139.057641 751.435921 138.405141 
Q 751.002796 137.749828 750.254671 137.749828 
z
M 750.254671 136.633266 
Q 751.644046 136.633266 752.459671 137.600766 
Q 753.278109 138.565453 753.278109 140.210766 
Q 753.278109 141.853266 752.456859 142.817953 
Q 751.635609 143.779828 750.254671 143.779828 
Q 748.848421 143.779828 748.029984 142.817953 
Q 747.214359 141.853266 747.214359 140.210766 
Q 747.214359 138.557016 748.035609 137.595141 
Q 748.856859 136.633266 750.254671 136.633266 
z
M 741.184359 131.281078 
Q 740.427796 131.281078 739.991859 131.936391 
Q 739.558734 132.588891 739.558734 133.733578 
Q 739.558734 134.892328 739.989046 135.544828 
Q 740.419359 136.194516 741.184359 136.194516 
Q 741.949359 136.194516 742.382484 135.544828 
Q 742.818421 134.892328 742.818421 133.733578 
Q 742.818421 132.600141 742.379671 131.942016 
Q 741.940921 131.281078 741.184359 131.281078 
z
M 749.121234 130.164516 
L 750.527484 130.164516 
L 742.317796 143.779828 
L 740.911546 143.779828 
L 749.121234 130.164516 
z
M 741.184359 130.164516 
Q 742.573734 130.164516 743.397796 131.126391 
Q 744.224671 132.088266 744.224671 133.733578 
Q 744.224671 135.392953 743.403421 136.352016 
Q 742.582171 137.311078 741.184359 137.311078 
Q 739.786546 137.311078 738.973734 136.349203 
Q 738.160921 135.384516 738.160921 133.733578 
Q 738.160921 132.096703 738.976546 131.132016 
Q 739.794984 130.164516 741.184359 130.164516 
z
M 765.573304 129.866391 
Q 764.397679 131.885766 763.823929 133.865766 
Q 763.252992 135.842953 763.252992 137.873578 
Q 763.252992 139.901391 763.829554 141.892641 
Q 764.406117 143.883891 765.573304 145.897641 
L 764.167054 145.897641 
Q 762.850804 143.830453 762.195492 141.836391 
Q 761.540179 139.842328 761.540179 137.873578 
Q 761.540179 135.913266 762.189867 133.927641 
Q 762.842367 131.939203 764.167054 129.866391 
L 765.573304 129.866391 
z
M 769.24889 142.030453 
L 772.148578 142.030453 
L 772.148578 132.017953 
L 768.992953 132.650766 
L 768.992953 131.033578 
L 772.131703 130.400766 
L 773.90639 130.400766 
L 773.90639 142.030453 
L 776.806078 142.030453 
L 776.806078 143.523891 
L 769.24889 143.523891 
L 769.24889 142.030453 
z
M 784.188538 137.291391 
Q 782.922913 137.291391 782.197288 137.969203 
Q 781.474476 138.647016 781.474476 139.831078 
Q 781.474476 141.017953 782.197288 141.695766 
Q 782.922913 142.373578 784.188538 142.373578 
Q 785.454163 142.373578 786.182601 141.692953 
Q 786.913851 141.009516 786.913851 139.831078 
Q 786.913851 138.647016 786.188226 137.969203 
Q 785.465413 137.291391 784.188538 137.291391 
z
M 782.413851 136.537641 
Q 781.271976 136.256391 780.633538 135.474516 
Q 779.997913 134.689828 779.997913 133.564828 
Q 779.997913 131.992641 781.117288 131.078578 
Q 782.239476 130.164516 784.188538 130.164516 
Q 786.148851 130.164516 787.265413 131.078578 
Q 788.381976 131.992641 788.381976 133.564828 
Q 788.381976 134.689828 787.743538 135.474516 
Q 787.107913 136.256391 785.974476 136.537641 
Q 787.256976 136.835766 787.971351 137.707641 
Q 788.688538 138.576703 788.688538 139.831078 
Q 788.688538 141.740766 787.524163 142.761703 
Q 786.359788 143.779828 784.188538 143.779828 
Q 782.020101 143.779828 780.852913 142.761703 
Q 779.688538 141.740766 779.688538 139.831078 
Q 779.688538 138.576703 780.408538 137.707641 
Q 781.131351 136.835766 782.413851 136.537641 
z
M 781.764163 133.733578 
Q 781.764163 134.751703 782.399788 135.322641 
Q 783.038226 135.893578 784.188538 135.893578 
Q 785.333226 135.893578 785.977288 135.322641 
Q 786.624163 134.751703 786.624163 133.733578 
Q 786.624163 132.712641 785.977288 132.141703 
Q 785.333226 131.570766 784.188538 131.570766 
Q 783.038226 131.570766 782.399788 132.141703 
Q 781.764163 132.712641 781.764163 133.733578 
z
M 793.373812 142.030453 
L 799.569749 142.030453 
L 799.569749 143.523891 
L 791.239124 143.523891 
L 791.239124 142.030453 
Q 792.248812 140.984203 793.992562 139.223578 
Q 795.739124 137.460141 796.186312 136.948266 
Q 797.038499 135.992016 797.375999 135.328266 
Q 797.716312 134.664516 797.716312 134.023266 
Q 797.716312 132.977016 796.982249 132.318891 
Q 796.248187 131.657953 795.069749 131.657953 
Q 794.234437 131.657953 793.306312 131.947641 
Q 792.380999 132.237328 791.326312 132.827953 
L 791.326312 131.033578 
Q 792.397874 130.603266 793.328812 130.383891 
Q 794.262562 130.164516 795.035999 130.164516 
Q 797.075062 130.164516 798.287249 131.185453 
Q 799.499437 132.203578 799.499437 133.907953 
Q 799.499437 134.717953 799.195687 135.443578 
Q 798.894749 136.166391 798.093187 137.150766 
Q 797.873812 137.406703 796.695374 138.624516 
Q 795.519749 139.842328 793.373812 142.030453 
z
M 802.815023 129.866391 
L 804.221273 129.866391 
Q 805.537523 131.939203 806.192835 133.927641 
Q 806.848148 135.913266 806.848148 137.873578 
Q 806.848148 139.842328 806.192835 141.836391 
Q 805.537523 143.830453 804.221273 145.897641 
L 802.815023 145.897641 
Q 803.98221 143.883891 804.558773 141.892641 
Q 805.135335 139.901391 805.135335 137.873578 
Q 805.135335 135.842953 804.558773 133.865766 
Q 803.98221 131.885766 802.815023 129.866391 
z
"/>
   </g>
   <g id="text_14">
    <!-- Number of Active and Inactive Wallets -->
    <g transform="translate(634.200219 26.64) scale(0.2 -0.2)">
     <use xlink:href="#DejaVuSans-4e"/>
     <use xlink:href="#DejaVuSans-75" x="74.804688"/>
     <use xlink:href="#DejaVuSans-6d" x="138.183594"/>
     <use xlink:href="#DejaVuSans-62" x="235.595703"/>
     <use xlink:href="#DejaVuSans-65" x="299.072266"/>
     <use xlink:href="#DejaVuSans-72" x="360.595703"/>
     <use xlink:href="#DejaVuSans-20" x="401.708984"/>
     <use xlink:href="#DejaVuSans-6f" x="433.496094"/>
     <use xlink:href="#DejaVuSans-66" x="494.677734"/>
     <use xlink:href="#DejaVuSans-20" x="529.882812"/>
     <use xlink:href="#DejaVuSans-41" x="561.669922"/>
     <use xlink:href="#DejaVuSans-63" x="628.328125"/>
     <use xlink:href="#DejaVuSans-74" x="683.308594"/>
     <use xlink:href="#DejaVuSans-69" x="722.517578"/>
     <use xlink:href="#DejaVuSans-76" x="750.300781"/>
     <use xlink:href="#DejaVuSans-65" x="809.480469"/>
     <use xlink:href="#DejaVuSans-20" x="871.003906"/>
     <use xlink:href="#DejaVuSans-61" x="902.791016"/>
     <use xlink:href="#DejaVuSans-6e" x="964.070312"/>
     <use xlink:href="#DejaVuSans-64" x="1027.449219"/>
     <use xlink:href="#DejaVuSans-20" x="1090.925781"/>
     <use xlink:href="#DejaVuSans-49" x="1122.712891"/>
     <use xlink:href="#DejaVuSans-6e" x="1152.205078"/>
     <use xlink:href="#DejaVuSans-61" x="1215.583984"/>
     <use xlink:href="#DejaVuSans-63" x="1276.863281"/>
     <use xlink:href="#DejaVuSans-74" x="1331.84375"/>
     <use xlink:href="#DejaVuSans-69" x="1371.052734"/>
     <use xlink:href="#DejaVuSans-76" x="1398.835938"/>
     <use xlink:href="#DejaVuSans-65" x="1458.015625"/>
     <use xlink:href="#DejaVuSans-20" x="1519.539062"/>
     <use xlink:href="#DejaVuSans-57" x="1551.326172"/>
     <use xlink:href="#DejaVuSans-61" x="1643.828125"/>
     <use xlink:href="#DejaVuSans-6c" x="1705.107422"/>
     <use xlink:href="#DejaVuSans-6c" x="1732.890625"/>
     <use xlink:href="#DejaVuSans-65" x="1760.673828"/>
     <use xlink:href="#DejaVuSans-74" x="1822.197266"/>
     <use xlink:href="#DejaVuSans-73" x="1861.40625"/>
    </g>
   </g>
  </g>
 </g>
</svg>
